<?xml version="1.0" encoding="utf-8"?>
<!-- Generator: Adobe Illustrator 25.0.1, SVG Export Plug-In . SVG Version: 6.00 Build 0)  -->
<svg version="1.1" id="Layer_1" xmlns="http://www.w3.org/2000/svg" xmlns:xlink="http://www.w3.org/1999/xlink" x="0px" y="0px"
	 viewBox="0 0 500 500" style="enable-background:new 0 0 500 500;" xml:space="preserve">
<style type="text/css">
	.st0{fill:#F25722;}
	.st1{display:none;fill:#749C4C;}
	.st2{display:none;fill:#A6DB70;}
	.st3{fill:#FFFFFF;}
	.st4{display:none;}
	.st5{display:inline;fill:#FFFFFF;}
	.st6{font-family:'Montserrat-Bold';}
	.st7{font-size:84.5475px;}
	.st8{display:inline;fill:#F57D81;}
	.st9{font-size:30.4022px;}
	.st10{fill:#FFD3C2;}
	.st11{fill:#361B44;}
	.st12{fill:#FF224F;}
	.st13{fill:#B9BBC1;}
	.st14{opacity:0.2;}
	.st15{opacity:0.4;}
	.st16{opacity:0.6;}
	.st17{opacity:0.5;}
	.st18{opacity:0.3;}
</style>
<g id="OBJECTS">
	<g>
		<g>
			<g>
				<path class="st0" d="M167.4,98.1c-1.4-0.4-3-0.7-4.3-1.1v113c3.4,2,6.8,3.9,10.2,5.9c26.5-24.9,70.8-42.7,77.6-45.2
					c2.5-1.1,5.4-0.7,7.7,0.5c2.3,1.3,3.9,3.6,4.3,6.3c1.3,9.8,10.4,96.9-26.5,119.5c-4.1,2.5-8.6,4.1-13.4,4.8h117.3V115.3
					C270.8,134.6,196.8,109.9,167.4,98.1z"/>
				<path class="st1" d="M205.4,240.1l4.3-6.6c2.5-3.9,8-5,12.2-2.7c4.1,2.5,5.4,7.7,2.7,11.4l-7.5,11.4c4.1,6.3,7,12.7,8,19.3
					c16.3-22.5,16.6-76.5,16.5-80.3c-19,8.6-40.1,20.9-53.7,32.9C194.3,230.3,200.2,235.1,205.4,240.1z"/>
				<path class="st2" d="M116.7,211.1c-2.1,31.1,1.3,91.2,24.7,104.8c8.2,4.8,19.1,4.3,32.7-2.1l-28.6-47c-2.5-3.9-1.1-9.1,3.2-11.4
					c1.6-0.9,3.2-1.3,4.8-1.1c2.9,0.2,5.5,1.6,7.2,4.1l18.4,30.6l10,16.5c2.3-1.6,4.5-3.2,6.4-5C222.9,263.5,119,212.2,116.7,211.1z
					"/>
			</g>
			<path class="st3" d="M369.7,79c-2.3-1.6-5.2-2-7.9-1.1c-11.4,3.8-22.9,6.6-34.3,8.8c-4.1-32.4-32.9-57.6-68-57.6
				C224.8,29.1,196,54,191.7,86c-21.1-3.9-34-8-34.3-8c-2.7-0.9-5.5-0.5-7.9,1.1c-2.3,1.6-3.6,4.1-3.6,6.8v115
				c-16.3-8-29.7-13.1-33.4-14.5c-2.5-0.9-5.4-0.7-7.7,0.7c-2.3,1.4-3.9,3.8-4.1,6.3c-1.3,11.3-10.4,111.4,31.7,136.8
				c6.4,3.9,13.8,5.9,21.6,5.9c11.1,0,23.4-3.9,37-11.6l0,0l0,0l0,0c3.4-2,6.6-3.9,9.5-6.1h164.2c4.8,0,8.8-3.8,8.8-8.4V85.8
				C373.3,83.1,371.9,80.6,369.7,79z M259.5,45.7c26.3,0,48.1,19.1,50.8,43.8c-38.3,5.2-74,3-101.2-0.7
				C211.8,64.5,233.4,45.7,259.5,45.7z M207.5,283.9c-1.3,4.8-4.3,9.8-9.5,14.5c-0.7,0.7-1.6,1.4-2.3,2c-2,1.6-4.1,3.4-6.4,5
				l-10-16.5l-18.4-30.6c-1.6-2.5-4.3-3.9-7.2-4.1c-1.6,0-3.4,0.2-4.8,1.1c-4.1,2.3-5.5,7.5-3.2,11.4l28.6,47
				c-13.6,6.3-24.7,7-32.7,2.1c-22.4-13.6-25.9-64.7-24.9-99.1c0.2-3.8,0.2-7.3,0.4-10.7c8.4,3.6,18.4,8.2,28.8,13.6
				c5.2,2.7,10.4,5.5,15.6,8.6c0.2,0.2,0.5,0.4,0.7,0.5c5,3,9.8,6.1,14.5,9.3c7.5,5.2,14.1,10.7,19.5,16.5
				c4.8,5.2,8.4,10.4,10.6,15.6c0.9,2.3,1.6,4.6,1.8,7.2C208.4,279.5,208,281.8,207.5,283.9z M221.8,230.8
				c-4.1-2.5-9.5-1.3-12.2,2.7l-4.3,6.6c-5.2-5-11.1-9.8-17.3-14.5c13.6-11.8,33.3-23.2,51.1-31.7c2.5-1.3,5-2.3,7.3-3.4
				c2.3,33.6-0.9,80.7-19.5,92.1c-0.5,0.4-1.1,0.5-1.6,0.7c0.4-2.5,0.4-5,0.2-7.7c0-0.9-0.4-1.8-0.5-2.9c-1.1-6.6-3.9-13.1-8-19.3
				l7.5-11.4C227.2,238.5,225.9,233.3,221.8,230.8z M355.8,301.6h-15.4H223.1c4.8-0.7,9.3-2.3,13.4-4.8
				c36.8-22.5,27.7-109.6,26.5-119.5c-0.4-2.7-1.8-4.8-4.3-6.3c-2.3-1.3-5.2-1.6-7.7-0.5c-6.8,2.7-51.1,20.4-77.6,45.2
				c-3.4-2.1-6.8-4.1-10.2-5.9v-113c1.3,0.4,2.9,0.7,4.3,1.1c32.2,7.9,108.6,21.6,188.3-0.9L355.8,301.6L355.8,301.6z"/>
		</g>
		<g class="st4">
			<text transform="matrix(1 0 0 1 10.2837 419.8457)" class="st5 st6 st7">MOBILARE</text>
			<text transform="matrix(1 0 0 1 61.0117 457.9844)" class="st8 st6 st9">SLOGAN GOES HERE</text>
		</g>
	</g>
</g>
<g id="Layer_3">
	<g>
		<g>
			<path class="st10" d="M275.1,271.8c21.8-45.1,1.6-78.5,1.6-78.5s-20.7-66.7-93.9-64.6c-73.1,2.1-83.9,50.6-83.9,50.6
				c-24.5,16.3-8.8,83.5-8.8,83.5s-22.2,39,14.7,60.4c37.4,21.6,72.8,20.6,72.8,20.6s61.5,4.6,74.9-40.2c0,0,24.9,2.5,28.3-10
				C285.1,278,275.1,271.8,275.1,271.8z"/>
		</g>
		<g>
			<path class="st11" d="M123.1,292.5c0,0,3.6,5.2,3.8,12.9c0.2,7.5,5,12.9,18.6,11.6c13.6-1.4,22-7.3,22.7-15.2"/>
		</g>
		<g>
			<path class="st12" d="M159.8,312.7c-18.1-14.8-30.6,0-30.6,0s5.2,4.6,14.5,4.1C153,316.5,159.8,312.7,159.8,312.7z"/>
		</g>
		<g>
			<path class="st13" d="M117.2,214.4c0,0,8.6-3,16.5-1.4s8.8,7.7,5,10c-3.8,2.5-8.8-1.6-15.4-1.8c-6.6,0-12.7,0.7-12.7-2.1
				C110.4,216.3,117.2,214.4,117.2,214.4z"/>
		</g>
		<g>
			<path class="st13" d="M192.1,223.7c0,0,9.1,0.7,15.4,5.5c6.3,4.8,7,9.3,3.4,10.2c-3.4,1.1-9.1-4.5-14.3-4.8
				c-5-0.4-12.5,1.1-13.9-3C181.4,227.2,184.6,223.1,192.1,223.7z"/>
		</g>
		<g class="st14">
			<path class="st11" d="M183,228.8c0,0,3,1.3,8.9,1.4c5.7,0,9.5,1.1,12,2.5s4.8-2,4.8-2s3.2,1.4,3.8,4.8c0.4,3.4-1.1,4.8-4.3,3.6
				c-3.2-1.4-7.7-4.5-10.6-4.6c-2.9-0.2-8.6,1.1-12.2-0.5C182.1,232.2,182.1,229.4,183,228.8z"/>
		</g>
		<g class="st14">
			<path class="st11" d="M139.2,219.9c0,0-6.8-1.6-12.3-2.3c-5.4-0.7-13.9-0.2-14.3-0.2s-3.2,1.3-1.6,2.7s8.8,0.9,9.7,0.7
				s5,0.5,5.7,0.5c0.5,0.2,8.4,2.9,11.4,2S139.2,219.9,139.2,219.9z"/>
		</g>
		<g>
			<path class="st13" d="M278,274.4c0,0-15-1.1-19.5,1.4s-7.3,12.7-8,12.9c-0.7,0.2-5.4-2.7-5.4-2.7s0.9-10-1.8-14.5
				s-6.6-10.2-6.6-10.2s-6.4-42.9,6.6-55.6c13.1-12.9,33.4-12.3,33.4-12.3s11.4,25,7.7,49c-3.9,23.8-9.7,28.4-9.7,28.4L278,274.4z"
				/>
		</g>
		<g class="st15">
			<path class="st3" d="M235.2,242.8c0,0,4.5-22.7,12.7-32.5c8.2-9.8,30.6-12.3,30.6-12.3l-1.6-3.2l-1.4-1.1c0,0-16.6-0.5-30.2,10.6
				C231.6,215.2,235.2,242.8,235.2,242.8z"/>
		</g>
		<g class="st14">
			<path class="st11" d="M239.2,265l1.6-21.1c0,0,27.7-3.8,38.4-17.9c0,0,0.9,28.3-5.9,46.9l-1.4,1.4c0,0-8.4-0.5-12.5,1.1
				c-4.3,1.6-8.6,12.5-8.6,12.7s-0.7,0-1.1,0.2c-0.4,0.4-4.6-2.1-4.6-2.1S247,271.4,239.2,265z"/>
		</g>
		<g>
			<path class="st13" d="M90.2,263c0,0-4.3-33.6,12.3-73.7l-3.8-10c0,0-7.9,3.6-12,21.8C82.5,219.4,87.5,256.7,90.2,263z"/>
		</g>
		<g class="st15">
			<path class="st3" d="M85.4,209.9c0,0,6.3-18.2,15.2-25.9l-3-3.4C97.5,180.4,86.4,188.2,85.4,209.9z"/>
		</g>
		<g class="st15">
			<path class="st3" d="M227.4,137.6c-36.3-17.2-84.9-7.7-108.9,12.7c-17.2,14.5-19,27.7-19,27.7s-1.1,1.8,0.7,4.5
				c0,0,12.9-22.5,39.9-35.9c3.6,1.6,13.8,1.4,25.4-0.9c12.5-2.5,22.5-6.3,24.3-9.3c31.1,1.1,64,16.1,82.8,57.6l2.7-0.5l1.1-2.1
				C275.8,191.3,263.7,154.8,227.4,137.6z"/>
		</g>
		<g class="st16">
			<path class="st11" d="M276.5,273c0,2.1,0,4.6,0.2,7.3c1.4,20.7-21.1,13.9-26.8,22.2c-19.3,27.4-56.3,26.3-56.3,26.3
				s-58.8,0.4-96-20.4c-6.8-3.8-10.9-10-14.1-14.7c1.4,9.3,7,19.5,19.5,28.1c37.4,25.8,88.3,21.8,88.3,21.8s48.8,0.4,61.5-40.1
				c0,0,24.9,2.5,28.3-10C284,281.8,279,275.3,276.5,273z"/>
		</g>
		<g>
			<path class="st11" d="M179.2,346.2c-20,0-54.2-5.7-77.8-22.7c-18.8-13.4-21.3-29.5-20-40.8c1.1-10,5.2-17.9,6.6-20.4
				c-1.8-8.2-14.1-67.8,9.1-84.6c0.9-3,4.5-13.8,14.8-24.7c11.1-11.6,32.4-25.6,70.8-26.6c38.6-1.1,62.6,17,76,32.2
				c13.8,15.7,19.1,31.3,19.9,33.6c0.9,1.4,5.4,9.7,7.5,22.9c2.1,12.7,2.3,32.7-8.4,55.8c2.9,2.7,8.8,9.8,5,22.9
				c-3.4,12.3-23.2,12.2-29,11.8c-7.2,14.7-18.8,25.6-34.2,32.4c-10,4.3-21.3,7-34.5,7.9C183.4,346.2,181.4,346.2,179.2,346.2z
				 M186.2,130.8c-1.1,0-2.1,0-3.2,0c-29.2,0.9-52.6,9.5-67.8,25.2c-11.4,11.8-14.1,23.6-14.1,23.8c-0.2,0.5-0.4,1.1-0.9,1.3
				c-22.9,15.4-7.9,80.7-7.9,81.4c0.2,0.5,0,1.3-0.4,1.6c0,0-5.4,8.4-6.4,19.3c-1.4,14.5,4.6,26.8,18.4,36.7
				c25.2,18.1,63,22.9,80.8,21.6c32.5-2.3,54.7-15.4,65.6-39c0.4-0.9,1.3-1.3,2.1-1.3c6.4,0.7,23.6,0.4,25.9-8.6
				c3.9-13.8-4.6-19.3-4.8-19.3c-0.9-0.5-1.3-1.8-0.7-2.7c10.9-22.7,10.9-42.2,8.8-54.5c-2.1-13.4-7.2-21.6-7.2-21.8
				s-0.2-0.4-0.2-0.5s-5.4-16.5-19.1-32.4C237.5,141.2,214.3,130.8,186.2,130.8z"/>
		</g>
		<g>
			<path class="st11" d="M250.2,290.9c-0.9,0-2.5-0.5-6.4-3c-0.7-0.4-1.1-1.3-0.9-2c0.2-2.7,0.4-10-1.4-13.2c-2.5-4.3-6.4-10-6.4-10
				c-0.2-0.2-0.4-0.5-0.4-0.9c-0.4-1.8-6.4-44,7.2-57.6c13.6-13.2,34.2-12.9,35.1-12.9c1.3,0,2.1,1.1,2.1,2.1c0,1.3-1.1,2.1-2.1,2.1
				c-0.2,0-19.7-0.4-31.8,11.6c-11.4,11.3-6.6,48.6-5.9,53.3c0.9,1.4,4.1,6.1,6.4,10c2.3,4.1,2.3,11.4,2.1,14.5
				c0.7,0.4,1.4,0.9,2,1.1c0.2-0.2,0.2-0.5,0.4-0.7c2-4.6,4.3-9.5,7.7-11.4c4.8-2.7,19.1-1.8,20.7-1.6c1.3,0,2.1,1.1,2,2.3
				c0,1.3-1.1,2.1-2.3,2c-5.5-0.4-15.6-0.5-18.4,1.1c-2.5,1.4-4.6,6.6-5.9,9.3c-1.1,2.3-1.4,3.2-2.5,3.8
				C250.8,290.9,250.6,290.9,250.2,290.9z M250.4,286.6L250.4,286.6L250.4,286.6z"/>
		</g>
		<g>
			<path class="st11" d="M90.2,265.1c-1.1,0-2-0.7-2.1-1.8c-0.2-1.4-4.1-34.3,12.2-74l-3.4-9.1c-0.4-1.1,0.2-2.3,1.3-2.7
				c1.1-0.4,2.3,0.2,2.7,1.3l3.8,10c0.2,0.5,0.2,1.1,0,1.6c-16.3,39-12.3,72.2-12.3,72.6c0.2,1.3-0.7,2.3-1.8,2.3
				C90.4,265.1,90.4,265.1,90.2,265.1z"/>
		</g>
		<g>
			<path class="st11" d="M151.3,217.6c5.7,0.4,12.3,1.6,18.1,2.1c2,0.2,3.9,0.4,6.1,0.5c0.4,0,0.5,0.4,0.4,0.5
				c0,0.2-0.2,0.4-0.4,0.4c-4.1,0.9-8.2,1.1-12.5,0.5c-2.1-0.2-4.1-0.5-6.1-1.1c-2-0.5-3.9-1.3-5.9-2.1
				C150.6,218.3,150.8,217.6,151.3,217.6L151.3,217.6z"/>
		</g>
		<g>
			<path class="st11" d="M156,226.9c3.6-0.7,7.2,0,10.6,0.9c2,1.4-4.8,2-5.5,1.8c-2-0.2-3.8-0.5-5.4-1.8
				C155.5,227.6,155.6,226.9,156,226.9L156,226.9z"/>
		</g>
		<g>
			<path class="st11" d="M160.1,300.6c-0.7-0.4-1.1-0.7-1.4-1.3c-0.2-0.5,0-0.9,0.2-1.4c0.2-1.1,0.4-2,0.7-3c0-0.2,0.2-0.2,0.4,0
				c0.5,0.9,0.9,1.8,1.3,2.9c0.2,0.5,0.5,0.9,0.4,1.4c-0.2,0.7-0.5,1.1-1.1,1.6C160.3,300.6,160.3,300.6,160.1,300.6L160.1,300.6z"
				/>
		</g>
		<g class="st14">
			<path class="st11" d="M84.6,223.5c0,0,3.9-22.7,17.3-33.6c0,0-5.4,12.7-7.9,25.8c-2.5,13.2-4.3,30.6-4.3,30.6l-2.7-0.9
				C87.1,245.3,84.6,229.6,84.6,223.5z"/>
		</g>
		<g>
			<path class="st11" d="M135.8,225.8c-1.8,0-3.8-0.5-5.7-1.1c-2.1-0.7-4.5-1.3-7-1.4c-1.4,0-2.7,0-3.9,0
				c-5.5,0.2-10.7,0.2-10.9-4.1c-0.2-4.1,6.3-6.3,8.2-7c0.9-0.4,9.5-3,17.5-1.4c4.8,0.9,8,3.6,8.8,7.2c0.5,2.7-0.7,5.2-3,6.8
				C138.5,225.4,137.2,225.8,135.8,225.8z M122.2,219c0.4,0,0.7,0,0.9,0c3,0,5.7,0.9,8,1.6c3,0.9,4.8,1.4,6.1,0.5
				c0.9-0.5,1.3-1.4,1.1-2.3c-0.2-1.4-1.8-3-5.4-3.8c-7.2-1.4-15.2,1.3-15.2,1.4c0,0,0,0-0.2,0c-2,0.5-4.3,1.8-5,2.5
				c1.3,0.4,4.1,0.4,6.3,0.2C120.1,219,121.1,219,122.2,219z M117.2,214.4L117.2,214.4L117.2,214.4z"/>
		</g>
		<g>
			<path class="st11" d="M210,241.5c-2.1,0-4.5-1.3-7-2.5c-2.1-1.3-4.5-2.3-6.4-2.5c-1.1,0-2.5,0-3.8,0c-4.6,0-10.4,0.2-12-4.5
				c-0.9-2.3-0.4-4.8,1.1-6.8c2-2.7,5.7-4.1,10.4-3.8l0,0c0.4,0,9.8,0.9,16.5,5.9c4.6,3.6,6.8,7.3,6.3,10.4c-0.4,1.8-1.6,3-3.6,3.6
				C211.1,241.5,210.5,241.5,210,241.5z M194.3,232.2c0.9,0,1.8,0,2.5,0c2.9,0.2,5.7,1.6,8.2,3c2,1.1,4.3,2.3,5.4,2
				c0.5-0.2,0.5-0.4,0.5-0.4c0.2-0.9-0.9-3.2-4.6-6.1c-5.4-4.1-13.8-5-14.1-5c-3.2-0.2-5.7,0.7-6.8,2.1c-0.5,0.9-0.7,1.8-0.4,2.9
				c0.5,1.6,4.6,1.6,7.9,1.6C193.2,232.2,193.7,232.2,194.3,232.2z"/>
		</g>
		<g>
			<g>
				<path class="st11" d="M198.4,268c0-2.7,2.1-4.8,4.8-4.8c0.4,0,0.7,0,1.1,0.2c-1.4-2.7-3.9-4.5-7.2-4.8l-2.1-0.2
					c-5-0.4-9.3,3.2-9.7,8.2l-1.6,19.9c-0.4,5,3.2,9.3,8.2,9.7l2.1,0.2c5,0.4,9.3-3.2,9.7-8.2l1.3-15.4c-0.5,0.2-1.1,0.4-1.6,0.4
					C200.5,273,198.4,270.7,198.4,268z"/>
			</g>
			<g>
				<path class="st3" d="M204.3,263.4c-0.4,0-0.7-0.2-1.1-0.2c-2.7,0-4.8,2.1-4.8,4.8c0,2.7,2.1,4.8,4.8,4.8c0.5,0,1.1-0.2,1.6-0.4
					l0.4-4.5C205.5,266.4,205.2,264.8,204.3,263.4z"/>
			</g>
		</g>
		<g class="st17">
			<circle class="st3" cx="195.9" cy="276.1" r="1.6"/>
		</g>
		<g>
			<g>
				<path class="st11" d="M125.6,253c0-2.7,2.1-4.8,4.8-4.8c0.4,0,0.7,0,1.1,0.2c-1.4-2.5-3.9-4.5-7-4.6l-2.1-0.2
					c-4.8-0.4-8.9,3.2-9.5,8l-1.6,19.3c-0.4,4.8,3.2,8.9,8,9.5l2.1,0.2c4.8,0.4,8.9-3.2,9.5-8l1.3-15c-0.5,0.2-1.1,0.4-1.6,0.4
					C127.7,257.6,125.6,255.5,125.6,253z"/>
			</g>
			<g>
				<path class="st3" d="M131.3,248.3c-0.4,0-0.7-0.2-1.1-0.2c-2.7,0-4.8,2.1-4.8,4.8s2.1,4.8,4.8,4.8c0.5,0,1.1-0.2,1.6-0.4
					l0.4-4.3C132.6,251.4,132,249.6,131.3,248.3z"/>
			</g>
		</g>
		<g class="st17">
			<circle class="st3" cx="123.1" cy="260.7" r="1.6"/>
		</g>
		<g>
			<path class="st11" d="M141.3,319.2c-5.5,0-9.7-1.3-12.5-3.8c-2.7-2.3-4.1-5.7-4.1-10c-0.2-6.8-3.2-11.6-3.4-11.6
				c-0.7-0.9-0.4-2.3,0.5-3s2.3-0.4,3,0.5c0.2,0.2,3.9,5.9,4.1,13.9c0,3,0.9,5.4,2.7,7c2.7,2.3,7.2,3.2,13.4,2.5
				c12-1.3,20.2-6.4,20.7-13.2c0.2-1.3,1.1-2,2.3-2c1.3,0.2,2,1.1,2,2.3c-0.7,9.1-10.2,15.7-24.5,17.2
				C144,319.2,142.6,319.2,141.3,319.2z"/>
		</g>
		<g>
			<path class="st11" d="M129.2,314.9c-0.5,0-0.9-0.2-1.4-0.5c-0.9-0.7-1.1-2.1-0.2-3c0.2-0.2,13.9-16.3,33.4-0.4
				c0.9,0.7,1.1,2.1,0.4,3c-0.7,0.9-2.1,1.1-3,0.4c-16.1-13.2-27-0.7-27.5-0.2C130.4,314.7,129.9,314.9,129.2,314.9z"/>
		</g>
		<g>
			<path class="st13" d="M120.6,293.8c0,0,9.8-13.9,27.4-11.8c17.5,2,22.4,19,22.4,19l-21.6-0.9l-4.8-0.5
				C144,299.1,130.2,297.5,120.6,293.8z"/>
		</g>
		<g class="st15">
			<path class="st3" d="M124.5,290.9c0,0,10-4.1,21.5-4.5c11.4-0.5,20.2,6.8,20.2,6.8s-6.3-11.3-21.3-11.1
				C129.9,282.3,124.5,290.9,124.5,290.9z"/>
		</g>
		<g>
			<path class="st11" d="M170.5,302.9C170.3,302.9,170.3,302.9,170.5,302.9l-21.6-0.9h-0.2l-4.8-0.5c-0.5,0-13.9-1.6-24-5.5
				c-0.5-0.2-1.1-0.7-1.3-1.4c-0.2-0.7,0-1.3,0.4-1.8s10.7-14.8,29.3-12.7c18.8,2.1,24,19.7,24.1,20.4c0.2,0.7,0,1.4-0.4,2
				C171.7,302.5,171,302.9,170.5,302.9z M149,297.7l18.2,0.9c-2.1-4.6-7.7-13.1-19.5-14.5c-12-1.4-20,5.2-23.6,8.8
				c8.9,3,19.9,4.3,20,4.3L149,297.7z"/>
		</g>
		<g>
			<path class="st11" d="M154,299.8c-0.7-0.4-1.1-0.9-1.3-1.6c-0.2-0.5,0.2-1.1,0.4-1.4c0.4-1.1,0.5-2,1.1-3c0-0.2,0.2-0.2,0.4,0
				c0.4,1.1,0.7,2,0.9,3c0.2,0.5,0.5,1.1,0.2,1.4c-0.2,0.7-0.7,1.1-1.3,1.4C154.2,299.8,154.2,299.8,154,299.8L154,299.8z"/>
		</g>
		<g>
			<path class="st11" d="M144.2,298.9c-0.5-0.5-0.9-1.3-1.1-2s0.4-1.3,0.5-1.8c0.4-1.3,0.9-2.3,1.4-3.4c0-0.2,0.2-0.2,0.4,0
				c0.2,1.3,0.4,2.5,0.5,3.8c0,0.5,0.4,1.3,0,1.8c-0.4,0.7-0.7,1.3-1.4,1.6C144.4,299.1,144.2,299.1,144.2,298.9L144.2,298.9z"/>
		</g>
		<g class="st14">
			<path class="st11" d="M123.6,294.8l4.3-3c0,0,12,3.2,18.4,3.8c6.3,0.5,15-4.1,15-4.1s4.8,5.5,5.7,8.4l-1.1,0.7
				C165.8,300.6,139,300,123.6,294.8z"/>
		</g>
	</g>
	<g>
		<g class="st18">
			<path class="st3" d="M96.4,274.1c0,0-6.1-23.2,4.6-36.1c0,0,25.6-3.6,38.4,8.9c1.8,1.6,2.5,4.1,2.3,6.4
				c-0.5,6.1-2.7,18.4-10.7,27.7C131.3,281.1,107.9,288.2,96.4,274.1z"/>
		</g>
		<g class="st18">
			<path class="st3" d="M170.5,252.8c7.9-1.1,31.1-3,47.2,6.8c0,0,7,18.8-7.3,41.3c0,0-29.2,3.4-42.4-6.1c0,0-7.5-20.2-1.3-38.6
				C167.3,254.4,168.7,253.2,170.5,252.8z"/>
		</g>
		<g class="st17">
			<path class="st3" d="M139.5,246.9c-13.1-12.5-38.4-8.9-38.4-8.9c-5.7,7-6.8,16.8-6.4,24.5c0.4-6.6,1.8-13.8,6.4-19.1
				c0,0,25.6-3.6,38.4,8.9c1.1,0.9,1.6,2.1,2.1,3.4c0.2-0.7,0.2-1.6,0.2-2.1C142.2,250.8,141.3,248.5,139.5,246.9z"/>
		</g>
		<g class="st17">
			<path class="st3" d="M170.5,258.2c7.9-1.1,31.1-3,47.2,6.8c0,0,1.3,3.4,1.6,9.1c0.4-8.8-1.6-14.3-1.6-14.3
				c-16.1-9.7-39.3-7.7-47.2-6.8c-1.8,0.2-3.2,1.4-3.8,3.2c-2.1,6.4-2.7,13.2-2.3,19.1c0.2-4.5,0.9-9.3,2.5-13.9
				C167.3,259.6,168.7,258.3,170.5,258.2z"/>
		</g>
		<g>
			<path class="st11" d="M118.1,285c-7.7,0-17-2-23.2-9.7c-0.2-0.2-0.4-0.5-0.4-0.7c-0.2-1.1-6.3-24.5,5.2-38.1
				c0.4-0.4,0.9-0.7,1.4-0.7c1.1-0.2,26.6-3.6,40.2,9.5c2.1,2.1,3.2,5.2,3,8.2c-0.7,6.6-3,19.3-11.3,29c-0.2,0.4-0.5,0.5-1.1,0.7
				C131.3,283.4,125.4,285,118.1,285z M98.4,273c9.5,11.3,28.1,7.2,31.7,6.1c7.2-8.6,9.1-20,9.8-26.1c0.2-1.8-0.5-3.6-1.6-4.8
				c-10.9-10.4-31.5-8.9-35.9-8.4C93.8,251,97.5,270,98.4,273z"/>
		</g>
		<g>
			<path class="st11" d="M95.7,248.7c-0.2,0-0.4,0-0.4,0l-2.9-0.4c-1.8-0.2-3-1.8-2.7-3.6c0.2-1.8,1.8-3,3.6-2.7l2.9,0.4
				c1.8,0.2,3,1.8,2.7,3.6C98.8,247.6,97.3,248.7,95.7,248.7z"/>
		</g>
		<g>
			<path class="st11" d="M165.3,263.2c-0.5,0-1.1-0.2-1.4-0.5c-9.7-9.3-20.9-3.4-21.5-3.2c-1.1,0.5-2.3,0.2-2.9-0.9
				s-0.2-2.3,0.9-2.9c0.2,0,14.5-7.5,26.5,3.9c0.9,0.9,0.9,2.1,0,3C166.4,263,165.8,263.2,165.3,263.2z"/>
		</g>
		<g>
			<path class="st11" d="M198.4,303.6c-9.8,0-23.4-1.3-31.7-7.2c-0.4-0.2-0.5-0.5-0.7-1.1c-0.4-0.9-7.7-21.1-1.3-40.1
				c0.9-2.5,3-4.3,5.5-4.6c9.1-1.3,32.2-2.9,48.6,7c0.4,0.2,0.7,0.7,0.9,1.1c0.4,0.9,7.2,20-7.5,43.3c-0.4,0.5-0.9,0.9-1.6,0.9
				C210,303.1,205,303.6,198.4,303.6z M169.8,293.4c11.3,7.5,34.2,5.9,39.3,5.4c11.4-18.6,7.9-34.5,6.8-37.9
				c-15.6-8.9-38.4-7-45.1-6.1l-0.4-2.1l0.4,2.1c-0.9,0.2-1.8,0.9-2.1,1.8C163.3,272.7,168.5,290,169.8,293.4z"/>
		</g>
		<g>
			<path class="st11" d="M220.9,276.8c-2,0-3.6-1.6-3.6-3.6s1.6-3.6,3.6-3.6h5.5l0,0c2,0,3.6,1.6,3.6,3.6s-1.6,3.6-3.6,3.6H220.9
				L220.9,276.8z"/>
		</g>
	</g>
</g>
</svg>
