<?xml version="1.0" encoding="utf-8"?>
<!-- Generator: Adobe Illustrator 25.0.1, SVG Export Plug-In . SVG Version: 6.00 Build 0)  -->
<svg version="1.1" xmlns="http://www.w3.org/2000/svg" xmlns:xlink="http://www.w3.org/1999/xlink" x="0px" y="0px"
	 viewBox="0 0 1080 576" style="enable-background:new 0 0 1080 576;" xml:space="preserve">
<style type="text/css">
	.st0{fill:#F2E4E5;}
	.st1{fill:#F3F4F7;}
	.st2{fill:#203C86;}
	.st3{fill:#636E93;}
	.st4{fill:#F25722;}
	.st5{fill:#EF8A6F;}
	.st6{fill:#161F27;}
	.st7{fill:#FFFFFF;}
	.st8{display:none;fill:#749C4C;}
	.st9{display:none;fill:#A6DB70;}
	.st10{font-family:'Montserrat-Bold';}
	.st11{font-size:22.7105px;}
	.st12{display:none;fill:#F57D81;enable-background:new    ;}
	.st13{font-size:8.1664px;}
	.st14{fill:#FFD3C2;}
	.st15{fill:#361B44;}
	.st16{fill:#FF224F;}
	.st17{fill:#B9BBC1;}
	.st18{opacity:0.2;}
	.st19{opacity:0.4;}
	.st20{opacity:0.6;}
	.st21{opacity:0.5;}
	.st22{opacity:0.3;}
</style>
<g id="Layer_1">
	<path class="st0" d="M1005.8,536.2H74.2c-32.1,0-58.2-26.1-58.2-58.2V164.4c0-32.1,26.1-58.2,58.2-58.2h931.6
		c32.1,0,58.2,26.1,58.2,58.2v313.6C1064,510.2,1037.9,536.2,1005.8,536.2z"/>
	<path class="st1" d="M836.5,471L836.5,471c-32.9,0-59.5-26.6-59.5-59.5v-181c0-32.9,26.6-59.5,59.5-59.5h0
		c32.9,0,59.5,26.6,59.5,59.5v181C896,444.4,869.4,471,836.5,471z"/>
	<path class="st2" d="M250.5,471L250.5,471c-32.9,0-59.5-26.6-59.5-59.5v-181c0-32.9,26.6-59.5,59.5-59.5h0
		c32.9,0,59.5,26.6,59.5,59.5v181C310,444.4,283.4,471,250.5,471z"/>
	<path class="st3" d="M398.5,471L398.5,471c-32.9,0-59.5-26.6-59.5-59.5v-181c0-32.9,26.6-59.5,59.5-59.5h0
		c32.9,0,59.5,26.6,59.5,59.5v181C458,444.4,431.4,471,398.5,471z"/>
	<g>
		<path class="st4" d="M545.5,471L545.5,471c-32.9,0-59.5-26.6-59.5-59.5v-181c0-32.9,26.6-59.5,59.5-59.5h0
			c32.9,0,59.5,26.6,59.5,59.5v181C605,444.4,578.4,471,545.5,471z"/>
	</g>
	<g>
		<path class="st5" d="M690.5,471L690.5,471c-32.9,0-59.5-26.6-59.5-59.5v-181c0-32.9,26.6-59.5,59.5-59.5h0
			c32.9,0,59.5,26.6,59.5,59.5v181C750,444.4,723.4,471,690.5,471z"/>
	</g>
	<g>
		<path class="st6" d="M97.5,471L97.5,471C64.6,471,38,444.4,38,411.5v-181c0-32.9,26.6-59.5,59.5-59.5h0
			c32.9,0,59.5,26.6,59.5,59.5v181C157,444.4,130.4,471,97.5,471z"/>
	</g>
	<path class="st7" d="M982.5,471L982.5,471c-32.9,0-59.5-26.6-59.5-59.5v-181c0-32.9,26.6-59.5,59.5-59.5h0
		c32.9,0,59.5,26.6,59.5,59.5v181C1042,444.4,1015.4,471,982.5,471z"/>
	<circle class="st0" cx="548" cy="83" r="56"/>
</g>
<g id="Layer_2">
	<g id="OBJECTS">
		<g>
			<g>
				<g>
					<path class="st4" d="M524.3,60.2c-0.4-0.1-0.8-0.2-1.2-0.3v30.4c0.9,0.5,1.8,1,2.7,1.6c7.1-6.7,19-11.5,20.8-12.1
						c0.7-0.3,1.5-0.2,2.1,0.1c0.6,0.3,1,1,1.2,1.7c0.3,2.6,2.8,26-7.1,32.1c-1.1,0.7-2.3,1.1-3.6,1.3h31.5V64.8
						C552.1,70,532.2,63.3,524.3,60.2z"/>
					<path class="st8" d="M534.5,98.3l1.2-1.8c0.7-1,2.1-1.3,3.3-0.7c1.1,0.7,1.5,2.1,0.7,3.1l-2,3.1c1.1,1.7,1.9,3.4,2.1,5.2
						c4.4-6,4.5-20.5,4.4-21.6c-5.1,2.3-10.8,5.6-14.4,8.8C531.5,95.7,533.1,97,534.5,98.3z"/>
					<path class="st9" d="M510.7,90.5c-0.6,8.4,0.3,24.5,6.6,28.2c2.2,1.3,5.1,1.2,8.8-0.6l-7.7-12.6c-0.7-1-0.3-2.4,0.9-3.1
						c0.4-0.2,0.9-0.3,1.3-0.3c0.8,0.1,1.5,0.4,1.9,1.1l4.9,8.2l2.7,4.4c0.6-0.4,1.2-0.9,1.7-1.3C539.2,104.6,511.3,90.8,510.7,90.5
						z"/>
				</g>
				<path class="st6" d="M578.7,55c-0.6-0.4-1.4-0.5-2.1-0.3c-3.1,1-6.2,1.8-9.2,2.4c-1.1-8.7-8.8-15.5-18.3-15.5
					c-9.3,0-17.1,6.7-18.2,15.3c-5.7-1-9.1-2.1-9.2-2.1c-0.7-0.2-1.5-0.1-2.1,0.3c-0.6,0.4-1,1.1-1,1.8v30.9c-4.4-2.1-8-3.5-9-3.9
					c-0.7-0.2-1.5-0.2-2.1,0.2c-0.6,0.4-1,1-1.1,1.7c-0.3,3-2.8,29.9,8.5,36.7c1.7,1,3.7,1.6,5.8,1.6c3,0,6.3-1,9.9-3.1l0,0l0,0l0,0
					c0.9-0.5,1.8-1,2.6-1.6h44.1c1.3,0,2.4-1,2.4-2.3V56.9C579.6,56.1,579.2,55.5,578.7,55z M549.1,46.1c7.1,0,12.9,5.1,13.6,11.8
					c-10.3,1.4-19.9,0.8-27.2-0.2C536.2,51.1,542,46.1,549.1,46.1z M535.1,110.1c-0.3,1.3-1.2,2.6-2.6,3.9c-0.2,0.2-0.4,0.4-0.6,0.5
					c-0.5,0.4-1.1,0.9-1.7,1.3l-2.7-4.4l-4.9-8.2c-0.4-0.7-1.2-1-1.9-1.1c-0.4,0-0.9,0.1-1.3,0.3c-1.1,0.6-1.5,2-0.9,3.1l7.7,12.6
					c-3.7,1.7-6.6,1.9-8.8,0.6c-6-3.7-7-17.4-6.7-26.6c0.1-1,0.1-2,0.1-2.9c2.3,1,4.9,2.2,7.7,3.7c1.4,0.7,2.8,1.5,4.2,2.3
					c0.1,0.1,0.1,0.1,0.2,0.1c1.3,0.8,2.6,1.6,3.9,2.5c2,1.4,3.8,2.9,5.2,4.4c1.3,1.4,2.3,2.8,2.8,4.2c0.2,0.6,0.4,1.2,0.5,1.9
					C535.3,108.9,535.2,109.5,535.1,110.1z M538.9,95.8c-1.1-0.7-2.6-0.3-3.3,0.7l-1.2,1.8c-1.4-1.3-3-2.6-4.6-3.9
					c3.7-3.2,8.9-6.2,13.7-8.5c0.7-0.3,1.3-0.6,2-0.9c0.6,9-0.2,21.7-5.2,24.7c-0.1,0.1-0.3,0.1-0.4,0.2c0.1-0.7,0.1-1.3,0.1-2.1
					c0-0.2-0.1-0.5-0.1-0.8c-0.3-1.8-1-3.5-2.1-5.2l2-3.1C540.4,97.9,540,96.5,538.9,95.8z M574.9,114.8h-4.1h-31.5
					c1.3-0.2,2.5-0.6,3.6-1.3c9.9-6,7.4-29.4,7.1-32.1c-0.1-0.7-0.5-1.3-1.2-1.7c-0.6-0.3-1.4-0.4-2.1-0.1
					c-1.8,0.7-13.7,5.5-20.8,12.1c-0.9-0.6-1.8-1.1-2.7-1.6V59.8c0.3,0.1,0.8,0.2,1.2,0.3c8.6,2.1,29.2,5.8,50.6-0.2L574.9,114.8
					L574.9,114.8z"/>
			</g>
			<g>
				<text transform="matrix(1 0 0 1 482.1128 146.5825)" class="st6 st10 st11">MOBILARE</text>
				<text transform="matrix(1 0 0 1 495.7388 156.8276)" class="st12 st10 st13">SLOGAN GOES HERE</text>
			</g>
		</g>
	</g>
	<g id="Layer_3">
		<g>
			<g>
				<path class="st14" d="M553.2,106.8c5.9-12.1,0.4-21.1,0.4-21.1s-5.6-17.9-25.2-17.4C508.8,68.9,505.9,82,505.9,82
					c-6.6,4.4-2.4,22.4-2.4,22.4s-6,10.5,3.9,16.2c10,5.8,19.6,5.5,19.6,5.5s16.5,1.2,20.1-10.8c0,0,6.7,0.7,7.6-2.7
					C555.9,108.5,553.2,106.8,553.2,106.8z"/>
			</g>
			<g>
				<path class="st15" d="M512.4,112.4c0,0,1,1.4,1,3.5c0.1,2,1.3,3.5,5,3.1c3.7-0.4,5.9-2,6.1-4.1"/>
			</g>
			<g>
				<path class="st16" d="M522.3,117.8c-4.9-4-8.2,0-8.2,0s1.4,1.2,3.9,1.1C520.4,118.8,522.3,117.8,522.3,117.8z"/>
			</g>
			<g>
				<path class="st17" d="M510.8,91.4c0,0,2.3-0.8,4.4-0.4c2.1,0.4,2.4,2.1,1.3,2.7c-1,0.7-2.4-0.4-4.1-0.5c-1.8,0-3.4,0.2-3.4-0.6
					C509,91.9,510.8,91.4,510.8,91.4z"/>
			</g>
			<g>
				<path class="st17" d="M531,93.9c0,0,2.4,0.2,4.1,1.5s1.9,2.5,0.9,2.7c-0.9,0.3-2.4-1.2-3.8-1.3c-1.3-0.1-3.4,0.3-3.7-0.8
					C528.1,94.8,528.9,93.7,531,93.9z"/>
			</g>
			<g class="st18">
				<path class="st15" d="M528.5,95.3c0,0,0.8,0.3,2.4,0.4c1.5,0,2.6,0.3,3.2,0.7c0.7,0.4,1.3-0.5,1.3-0.5s0.9,0.4,1,1.3
					c0.1,0.9-0.3,1.3-1.2,1c-0.9-0.4-2.1-1.2-2.8-1.2c-0.8-0.1-2.3,0.3-3.3-0.1C528.3,96.2,528.3,95.4,528.5,95.3z"/>
			</g>
			<g class="st18">
				<path class="st15" d="M516.7,92.9c0,0-1.8-0.4-3.3-0.6c-1.5-0.2-3.7-0.1-3.8-0.1s-0.9,0.3-0.4,0.7c0.4,0.4,2.4,0.2,2.6,0.2
					c0.2-0.1,1.3,0.1,1.5,0.1c0.1,0.1,2.3,0.8,3.1,0.5C517.2,93.5,516.7,92.9,516.7,92.9z"/>
			</g>
			<g>
				<path class="st17" d="M554,107.5c0,0-4-0.3-5.2,0.4c-1.2,0.7-2,3.4-2.1,3.5c-0.2,0.1-1.5-0.7-1.5-0.7s0.2-2.7-0.5-3.9
					c-0.7-1.2-1.8-2.7-1.8-2.7s-1.7-11.5,1.8-14.9c3.5-3.5,9-3.3,9-3.3s3.1,6.7,2.1,13.2c-1,6.4-2.6,7.6-2.6,7.6L554,107.5z"/>
			</g>
			<g class="st19">
				<path class="st7" d="M542.5,99c0,0,1.2-6.1,3.4-8.7s8.2-3.3,8.2-3.3l-0.4-0.9l-0.4-0.3c0,0-4.5-0.1-8.1,2.8
					C541.6,91.6,542.5,99,542.5,99z"/>
			</g>
			<g class="st18">
				<path class="st15" d="M543.6,105l0.4-5.7c0,0,7.4-1,10.3-4.8c0,0,0.2,7.6-1.6,12.6l-0.4,0.4c0,0-2.3-0.1-3.4,0.3
					c-1.2,0.4-2.3,3.4-2.3,3.4s-0.2,0-0.3,0.1c-0.1,0.1-1.2-0.6-1.2-0.6S545.7,106.7,543.6,105z"/>
			</g>
			<g>
				<path class="st17" d="M503.6,104.5c0,0-1.2-9,3.3-19.8l-1-2.7c0,0-2.1,1-3.2,5.9C501.5,92.7,502.9,102.8,503.6,104.5z"/>
			</g>
			<g class="st19">
				<path class="st7" d="M502.3,90.2c0,0,1.7-4.9,4.1-7l-0.8-0.9C505.5,82.3,502.6,84.4,502.3,90.2z"/>
			</g>
			<g class="st19">
				<path class="st7" d="M540.4,70.8c-9.8-4.6-22.8-2.1-29.3,3.4c-4.6,3.9-5.1,7.4-5.1,7.4s-0.3,0.5,0.2,1.2c0,0,3.5-6,10.7-9.6
					c1,0.4,3.7,0.4,6.8-0.2c3.4-0.7,6-1.7,6.5-2.5c8.4,0.3,17.2,4.3,22.2,15.5l0.7-0.1l0.3-0.6C553.4,85.2,550.2,75.4,540.4,70.8z"
					/>
			</g>
			<g class="st20">
				<path class="st15" d="M553.6,107.1c0,0.6,0,1.2,0.1,2c0.4,5.6-5.7,3.7-7.2,6c-5.2,7.4-15.1,7.1-15.1,7.1s-15.8,0.1-25.8-5.5
					c-1.8-1-2.9-2.7-3.8-3.9c0.4,2.5,1.9,5.2,5.2,7.5c10,6.9,23.7,5.9,23.7,5.9s13.1,0.1,16.5-10.8c0,0,6.7,0.7,7.6-2.7
					C555.6,109.5,554.3,107.8,553.6,107.1z"/>
			</g>
			<g>
				<path class="st15" d="M527.5,126.8c-5.4,0-14.6-1.5-20.9-6.1c-5-3.6-5.7-7.9-5.4-11c0.3-2.7,1.4-4.8,1.8-5.5
					c-0.5-2.2-3.8-18.2,2.4-22.7c0.2-0.8,1.2-3.7,4-6.6c3-3.1,8.7-6.9,19-7.1c10.4-0.3,16.8,4.6,20.4,8.6c3.7,4.2,5.1,8.4,5.3,9
					c0.2,0.4,1.5,2.6,2,6.2c0.6,3.4,0.6,8.8-2.3,15c0.8,0.7,2.4,2.6,1.3,6.2c-0.9,3.3-6.2,3.3-7.8,3.2c-1.9,3.9-5,6.9-9.2,8.7
					c-2.7,1.2-5.7,1.9-9.3,2.1C528.6,126.8,528.1,126.8,527.5,126.8z M529.4,68.9c-0.3,0-0.6,0-0.9,0c-7.8,0.2-14.1,2.6-18.2,6.8
					c-3.1,3.2-3.8,6.3-3.8,6.4c-0.1,0.1-0.1,0.3-0.2,0.3c-6.2,4.1-2.1,21.7-2.1,21.9c0.1,0.1,0,0.3-0.1,0.4c0,0-1.5,2.3-1.7,5.2
					c-0.4,3.9,1.2,7.2,4.9,9.9c6.8,4.9,16.9,6.2,21.7,5.8c8.7-0.6,14.7-4.1,17.6-10.5c0.1-0.2,0.3-0.3,0.6-0.3
					c1.7,0.2,6.3,0.1,7-2.3c1-3.7-1.2-5.2-1.3-5.2c-0.2-0.1-0.3-0.5-0.2-0.7c2.9-6.1,2.9-11.3,2.4-14.6c-0.6-3.6-1.9-5.8-1.9-5.9
					s-0.1-0.1-0.1-0.1s-1.5-4.4-5.1-8.7C543.1,71.7,536.9,68.9,529.4,68.9z"/>
			</g>
			<g>
				<path class="st15" d="M546.6,111.9c-0.2,0-0.7-0.1-1.7-0.8c-0.2-0.1-0.3-0.3-0.2-0.5c0.1-0.7,0.1-2.7-0.4-3.5
					c-0.7-1.2-1.7-2.7-1.7-2.7c-0.1-0.1-0.1-0.1-0.1-0.2c-0.1-0.5-1.7-11.8,1.9-15.5c3.7-3.5,9.2-3.5,9.4-3.5c0.3,0,0.6,0.3,0.6,0.6
					c0,0.3-0.3,0.6-0.6,0.6c-0.1,0-5.3-0.1-8.5,3.1c-3.1,3-1.8,13.1-1.6,14.3c0.2,0.4,1.1,1.6,1.7,2.7c0.6,1.1,0.6,3.1,0.6,3.9
					c0.2,0.1,0.4,0.2,0.5,0.3c0.1-0.1,0.1-0.1,0.1-0.2c0.5-1.2,1.2-2.6,2.1-3.1c1.3-0.7,5.1-0.5,5.6-0.4c0.3,0,0.6,0.3,0.5,0.6
					c0,0.3-0.3,0.6-0.6,0.5c-1.5-0.1-4.2-0.1-4.9,0.3c-0.7,0.4-1.2,1.8-1.6,2.5c-0.3,0.6-0.4,0.9-0.7,1
					C546.7,111.9,546.7,111.9,546.6,111.9z M546.6,110.8L546.6,110.8L546.6,110.8z"/>
			</g>
			<g>
				<path class="st15" d="M503.6,105c-0.3,0-0.5-0.2-0.6-0.5c-0.1-0.4-1.1-9.2,3.3-19.9l-0.9-2.4c-0.1-0.3,0.1-0.6,0.3-0.7
					s0.6,0.1,0.7,0.3l1,2.7c0.1,0.1,0.1,0.3,0,0.4c-4.4,10.5-3.3,19.4-3.3,19.5c0.1,0.3-0.2,0.6-0.5,0.6
					C503.6,105,503.6,105,503.6,105z"/>
			</g>
			<g>
				<path class="st15" d="M520,92.3c1.5,0.1,3.3,0.4,4.9,0.6c0.5,0.1,1,0.1,1.6,0.1c0.1,0,0.1,0.1,0.1,0.1c0,0.1-0.1,0.1-0.1,0.1
					c-1.1,0.2-2.2,0.3-3.4,0.1c-0.6-0.1-1.1-0.1-1.6-0.3c-0.5-0.1-1-0.3-1.6-0.6C519.8,92.4,519.9,92.3,520,92.3L520,92.3z"/>
			</g>
			<g>
				<path class="st15" d="M521.3,94.8c1-0.2,1.9,0,2.8,0.2c0.5,0.4-1.3,0.5-1.5,0.5c-0.5-0.1-1-0.1-1.5-0.5
					C521.1,94.9,521.1,94.8,521.3,94.8L521.3,94.8z"/>
			</g>
			<g>
				<path class="st15" d="M522.4,114.6c-0.2-0.1-0.3-0.2-0.4-0.3c-0.1-0.1,0-0.2,0.1-0.4c0.1-0.3,0.1-0.5,0.2-0.8
					c0-0.1,0.1-0.1,0.1,0c0.1,0.2,0.2,0.5,0.3,0.8c0.1,0.1,0.1,0.2,0.1,0.4c-0.1,0.2-0.1,0.3-0.3,0.4
					C522.4,114.6,522.4,114.6,522.4,114.6L522.4,114.6z"/>
			</g>
			<g class="st18">
				<path class="st15" d="M502.1,93.8c0,0,1-6.1,4.6-9c0,0-1.5,3.4-2.1,6.9c-0.7,3.5-1.2,8.2-1.2,8.2l-0.7-0.2
					C502.7,99.7,502.1,95.5,502.1,93.8z"/>
			</g>
			<g>
				<path class="st15" d="M515.8,94.5c-0.5,0-1-0.1-1.5-0.3c-0.6-0.2-1.2-0.3-1.9-0.4c-0.4,0-0.7,0-1,0c-1.5,0.1-2.9,0.1-2.9-1.1
					c-0.1-1.1,1.7-1.7,2.2-1.9c0.2-0.1,2.6-0.8,4.7-0.4c1.3,0.2,2.1,1,2.4,1.9c0.1,0.7-0.2,1.4-0.8,1.8
					C516.6,94.4,516.2,94.5,515.8,94.5z M512.2,92.6c0.1,0,0.2,0,0.2,0c0.8,0,1.5,0.2,2.1,0.4c0.8,0.2,1.3,0.4,1.6,0.1
					c0.2-0.1,0.3-0.4,0.3-0.6c-0.1-0.4-0.5-0.8-1.5-1c-1.9-0.4-4.1,0.3-4.1,0.4c0,0,0,0-0.1,0c-0.5,0.1-1.2,0.5-1.3,0.7
					c0.3,0.1,1.1,0.1,1.7,0.1C511.6,92.6,511.9,92.6,512.2,92.6z M510.8,91.4L510.8,91.4L510.8,91.4z"/>
			</g>
			<g>
				<path class="st15" d="M535.8,98.7c-0.6,0-1.2-0.3-1.9-0.7c-0.6-0.3-1.2-0.6-1.7-0.7c-0.3,0-0.7,0-1,0c-1.2,0-2.8,0.1-3.2-1.2
					c-0.2-0.6-0.1-1.3,0.3-1.8c0.5-0.7,1.5-1.1,2.8-1l0,0c0.1,0,2.6,0.2,4.4,1.6c1.2,1,1.8,2,1.7,2.8c-0.1,0.5-0.4,0.8-1,1
					C536.1,98.7,535.9,98.7,535.8,98.7z M531.5,96.2c0.2,0,0.5,0,0.7,0c0.8,0.1,1.5,0.4,2.2,0.8c0.5,0.3,1.2,0.6,1.5,0.5
					c0.1-0.1,0.1-0.1,0.1-0.1c0.1-0.2-0.2-0.9-1.2-1.6c-1.5-1.1-3.7-1.3-3.8-1.3c-0.9-0.1-1.5,0.2-1.8,0.6c-0.1,0.2-0.2,0.5-0.1,0.8
					c0.1,0.4,1.2,0.4,2.1,0.4C531.2,96.2,531.4,96.2,531.5,96.2z"/>
			</g>
			<g>
				<g>
					<path class="st15" d="M532.6,105.8c0-0.7,0.6-1.3,1.3-1.3c0.1,0,0.2,0,0.3,0.1c-0.4-0.7-1-1.2-1.9-1.3l-0.6-0.1
						c-1.3-0.1-2.5,0.9-2.6,2.2l-0.4,5.3c-0.1,1.3,0.9,2.5,2.2,2.6l0.6,0.1c1.3,0.1,2.5-0.9,2.6-2.2l0.3-4.1
						c-0.1,0.1-0.3,0.1-0.4,0.1C533.2,107.1,532.6,106.5,532.6,105.8z"/>
				</g>
				<g>
					<path class="st7" d="M534.2,104.6c-0.1,0-0.2-0.1-0.3-0.1c-0.7,0-1.3,0.6-1.3,1.3c0,0.7,0.6,1.3,1.3,1.3c0.1,0,0.3-0.1,0.4-0.1
						l0.1-1.2C534.6,105.4,534.5,104.9,534.2,104.6z"/>
				</g>
			</g>
			<g class="st21">
				<circle class="st7" cx="532" cy="108" r="0.4"/>
			</g>
			<g>
				<g>
					<path class="st15" d="M513.1,101.8c0-0.7,0.6-1.3,1.3-1.3c0.1,0,0.2,0,0.3,0.1c-0.4-0.7-1-1.2-1.9-1.2l-0.6-0.1
						c-1.3-0.1-2.4,0.9-2.6,2.1l-0.4,5.2c-0.1,1.3,0.9,2.4,2.1,2.6l0.6,0.1c1.3,0.1,2.4-0.9,2.6-2.1l0.3-4c-0.1,0.1-0.3,0.1-0.4,0.1
						C513.7,103,513.1,102.4,513.1,101.8z"/>
				</g>
				<g>
					<path class="st7" d="M514.6,100.5c-0.1,0-0.2-0.1-0.3-0.1c-0.7,0-1.3,0.6-1.3,1.3c0,0.7,0.6,1.3,1.3,1.3c0.1,0,0.3-0.1,0.4-0.1
						l0.1-1.2C515,101.3,514.8,100.9,514.6,100.5z"/>
				</g>
			</g>
			<g class="st21">
				<circle class="st7" cx="512.4" cy="103.8" r="0.4"/>
			</g>
			<g>
				<path class="st15" d="M517.3,119.5c-1.5,0-2.6-0.3-3.4-1c-0.7-0.6-1.1-1.5-1.1-2.7c-0.1-1.8-0.9-3.1-0.9-3.1
					c-0.2-0.2-0.1-0.6,0.1-0.8c0.2-0.2,0.6-0.1,0.8,0.1c0.1,0.1,1,1.6,1.1,3.7c0,0.8,0.2,1.5,0.7,1.9c0.7,0.6,1.9,0.9,3.6,0.7
					c3.2-0.3,5.4-1.7,5.6-3.5c0.1-0.3,0.3-0.5,0.6-0.5c0.3,0.1,0.5,0.3,0.5,0.6c-0.2,2.4-2.7,4.2-6.6,4.6
					C518,119.5,517.7,119.5,517.3,119.5z"/>
			</g>
			<g>
				<path class="st15" d="M514.1,118.4c-0.1,0-0.2-0.1-0.4-0.1c-0.2-0.2-0.3-0.6-0.1-0.8c0.1-0.1,3.7-4.4,9-0.1
					c0.2,0.2,0.3,0.6,0.1,0.8c-0.2,0.2-0.6,0.3-0.8,0.1c-4.3-3.5-7.3-0.2-7.4-0.1C514.4,118.3,514.2,118.4,514.1,118.4z"/>
			</g>
			<g>
				<path class="st17" d="M511.7,112.7c0,0,2.6-3.7,7.4-3.2c4.7,0.5,6,5.1,6,5.1l-5.8-0.2l-1.3-0.1
					C518,114.1,514.3,113.7,511.7,112.7z"/>
			</g>
			<g class="st19">
				<path class="st7" d="M512.8,111.9c0,0,2.7-1.1,5.8-1.2c3.1-0.1,5.4,1.8,5.4,1.8s-1.7-3-5.7-3
					C514.2,109.6,512.8,111.9,512.8,111.9z"/>
			</g>
			<g>
				<path class="st15" d="M525.1,115.2C525.1,115.2,525.1,115.2,525.1,115.2l-5.8-0.2h-0.1l-1.3-0.1c-0.1,0-3.7-0.4-6.4-1.5
					c-0.1-0.1-0.3-0.2-0.3-0.4c-0.1-0.2,0-0.3,0.1-0.5c0.1-0.1,2.9-4,7.9-3.4c5,0.6,6.4,5.3,6.5,5.5c0.1,0.2,0,0.4-0.1,0.5
					C525.5,115.1,525.3,115.2,525.1,115.2z M519.4,113.8l4.9,0.2c-0.6-1.2-2.1-3.5-5.2-3.9c-3.2-0.4-5.4,1.4-6.3,2.4
					c2.4,0.8,5.3,1.2,5.4,1.2L519.4,113.8z"/>
			</g>
			<g>
				<path class="st15" d="M520.7,114.3c-0.2-0.1-0.3-0.2-0.3-0.4c-0.1-0.1,0.1-0.3,0.1-0.4c0.1-0.3,0.1-0.5,0.3-0.8
					c0-0.1,0.1-0.1,0.1,0c0.1,0.3,0.2,0.5,0.2,0.8c0.1,0.1,0.1,0.3,0.1,0.4c-0.1,0.2-0.2,0.3-0.3,0.4
					C520.8,114.3,520.8,114.3,520.7,114.3L520.7,114.3z"/>
			</g>
			<g>
				<path class="st15" d="M518.1,114.1c-0.1-0.1-0.2-0.3-0.3-0.5c-0.1-0.2,0.1-0.3,0.1-0.5c0.1-0.3,0.2-0.6,0.4-0.9
					c0-0.1,0.1-0.1,0.1,0c0.1,0.3,0.1,0.7,0.1,1c0,0.1,0.1,0.3,0,0.5C518.4,113.9,518.4,114,518.1,114.1
					C518.1,114.1,518.1,114.1,518.1,114.1L518.1,114.1z"/>
			</g>
			<g class="st18">
				<path class="st15" d="M512.6,113l1.2-0.8c0,0,3.2,0.9,4.9,1c1.7,0.1,4-1.1,4-1.1s1.3,1.5,1.5,2.3l-0.3,0.2
					C523.9,114.6,516.7,114.4,512.6,113z"/>
			</g>
		</g>
		<g>
			<g class="st22">
				<path class="st7" d="M505.2,107.4c0,0-1.6-6.2,1.2-9.7c0,0,6.9-1,10.3,2.4c0.5,0.4,0.7,1.1,0.6,1.7c-0.1,1.6-0.7,4.9-2.9,7.4
					C514.6,109.3,508.3,111.2,505.2,107.4z"/>
			</g>
			<g class="st22">
				<path class="st7" d="M525.1,101.7c2.1-0.3,8.4-0.8,12.7,1.8c0,0,1.9,5-2,11.1c0,0-7.8,0.9-11.4-1.6c0,0-2-5.4-0.3-10.4
					C524.3,102.1,524.7,101.8,525.1,101.7z"/>
			</g>
			<g class="st21">
				<path class="st7" d="M516.8,100.1c-3.5-3.4-10.3-2.4-10.3-2.4c-1.5,1.9-1.8,4.5-1.7,6.6c0.1-1.8,0.5-3.7,1.7-5.1
					c0,0,6.9-1,10.3,2.4c0.3,0.2,0.4,0.6,0.6,0.9c0.1-0.2,0.1-0.4,0.1-0.6C517.5,101.2,517.3,100.6,516.8,100.1z"/>
			</g>
			<g class="st21">
				<path class="st7" d="M525.1,103.2c2.1-0.3,8.4-0.8,12.7,1.8c0,0,0.3,0.9,0.4,2.4c0.1-2.4-0.4-3.8-0.4-3.8
					c-4.3-2.6-10.6-2.1-12.7-1.8c-0.5,0.1-0.9,0.4-1,0.9c-0.6,1.7-0.7,3.5-0.6,5.1c0.1-1.2,0.2-2.5,0.7-3.7
					C524.3,103.5,524.7,103.2,525.1,103.2z"/>
			</g>
			<g>
				<path class="st15" d="M511.1,110.4c-2.1,0-4.6-0.5-6.2-2.6c-0.1-0.1-0.1-0.1-0.1-0.2c-0.1-0.3-1.7-6.6,1.4-10.2
					c0.1-0.1,0.2-0.2,0.4-0.2c0.3-0.1,7.1-1,10.8,2.6c0.6,0.6,0.9,1.4,0.8,2.2c-0.2,1.8-0.8,5.2-3,7.8c-0.1,0.1-0.1,0.1-0.3,0.2
					C514.6,109.9,513,110.4,511.1,110.4z M505.8,107.1c2.6,3,7.5,1.9,8.5,1.6c1.9-2.3,2.4-5.4,2.6-7c0.1-0.5-0.1-1-0.4-1.3
					c-2.9-2.8-8.5-2.4-9.6-2.3C504.5,101.2,505.5,106.3,505.8,107.1z"/>
			</g>
			<g>
				<path class="st15" d="M505.1,100.6c-0.1,0-0.1,0-0.1,0l-0.8-0.1c-0.5-0.1-0.8-0.5-0.7-1c0.1-0.5,0.5-0.8,1-0.7l0.8,0.1
					c0.5,0.1,0.8,0.5,0.7,1C505.9,100.3,505.5,100.6,505.1,100.6z"/>
			</g>
			<g>
				<path class="st15" d="M523.8,104.5c-0.1,0-0.3-0.1-0.4-0.1c-2.6-2.5-5.6-0.9-5.8-0.9c-0.3,0.1-0.6,0.1-0.8-0.2
					c-0.2-0.3-0.1-0.6,0.2-0.8c0.1,0,3.9-2,7.1,1c0.2,0.2,0.2,0.6,0,0.8C524,104.5,523.9,104.5,523.8,104.5z"/>
			</g>
			<g>
				<path class="st15" d="M532.6,115.4c-2.6,0-6.3-0.3-8.5-1.9c-0.1-0.1-0.1-0.1-0.2-0.3c-0.1-0.2-2.1-5.7-0.3-10.8
					c0.2-0.7,0.8-1.2,1.5-1.2c2.4-0.3,8.6-0.8,13.1,1.9c0.1,0.1,0.2,0.2,0.2,0.3c0.1,0.2,1.9,5.4-2,11.6c-0.1,0.1-0.2,0.2-0.4,0.2
					C535.8,115.2,534.4,115.4,532.6,115.4z M525,112.6c3,2,9.2,1.6,10.6,1.5c3.1-5,2.1-9.3,1.8-10.2c-4.2-2.4-10.3-1.9-12.1-1.6
					l-0.1-0.6l0.1,0.6c-0.2,0.1-0.5,0.2-0.6,0.5C523.2,107.1,524.6,111.7,525,112.6z"/>
			</g>
			<g>
				<path class="st15" d="M538.7,108.2c-0.5,0-1-0.4-1-1s0.4-1,1-1h1.5l0,0c0.5,0,1,0.4,1,1s-0.4,1-1,1H538.7L538.7,108.2z"/>
			</g>
		</g>
	</g>
</g>
</svg>
