<?xml version="1.0" encoding="utf-8"?>
<!-- Generator: Adobe Illustrator 25.0.1, SVG Export Plug-In . SVG Version: 6.00 Build 0)  -->
<svg version="1.1" xmlns="http://www.w3.org/2000/svg" xmlns:xlink="http://www.w3.org/1999/xlink" x="0px" y="0px"
	 viewBox="0 0 500 500" style="enable-background:new 0 0 500 500;" xml:space="preserve">
<style type="text/css">
	.st0{fill:#303030;}
	.st1{fill:#FFCCCC;}
	.st2{fill:none;stroke:#303030;stroke-width:1.5;stroke-linecap:round;stroke-linejoin:round;stroke-miterlimit:10;}
	.st3{fill:#F55571;}
	.st4{fill:#FF95FB;stroke:#303030;stroke-width:1.5;stroke-linecap:round;stroke-linejoin:round;stroke-miterlimit:10;}
	.st5{fill:#FFFFFF;stroke:#303030;stroke-width:1.5;stroke-linecap:round;stroke-linejoin:round;stroke-miterlimit:10;}
	.st6{fill:none;stroke:#FFFFFF;stroke-width:1.5;stroke-linecap:round;stroke-linejoin:round;stroke-miterlimit:10;}
	.st7{fill:#FFFFFF;}
	.st8{fill:#D48983;}
	.st9{fill:#00826F;}
	.st10{fill:#00826F;stroke:#303030;stroke-width:1.5;stroke-linecap:round;stroke-linejoin:round;stroke-miterlimit:10;}
	.st11{opacity:0.4;fill:#D48983;}
	.st12{fill:#FFC4B0;}
</style>
<g id="Character_3">
	<g id="Character_00000012442641191847184440000009988796033657423757_">
		<path class="st0" d="M386.3,124.7l-37.8-1.7c-0.4,6.7-0.8,11.1-5.6,15.8c-4.2,4.1-8.5,5.5-13,9.3c-11.3,9.8-3.4,26,9.8,27.9
			c14.9,2.2,31.1-4.1,38.7-19.3C383.4,146.7,386.9,135.7,386.3,124.7z"/>
		<g id="Arm_00000102528346759596174040000007862991042550225026_">
			<path class="st1" d="M283.7,179.7c0.4-0.8,1.4-0.7,2.5-0.3c1.3,0.4,3.1,1.1,3.9,1.4c0.7,0.3,0.8-0.2,0.4-0.5
				c-1-0.6-4.9-3.2-5.8-4c-0.9-0.8-2.2-1.8-1.6-3c0.5-0.9,1.5-0.7,3,0.2c2.7,1.7,5.7,3.6,6.3,4c0.6,0.4,0.9,0.1,0.4-0.4
				c-0.6-0.5-5-4.2-6.1-5.3c-1.2-1-2.3-2-1.6-3c0.7-1,2-0.3,2.9,0.3c1,0.6,2.5,1.8,3.9,2.9c1.3,1,2.1,1.5,2.5,1.8
				c0.5,0.3,1,0.6,1.1,0.4c0.2-0.2,0.1-0.3-0.3-0.8c-2.1-2.3-2.4-2.6-4.3-4.6c-1.1-1.1-1.6-1.6-2-2.6c-0.2-0.7,0.6-1.6,1.4-1.4
				c1.3,0.3,2.1,1.3,3.4,2.4c1.6,1.4,4.2,4,6.1,5.6c1.1,0.9,1.6,0.9,1.8,0.7c0.5-0.3,0-1.7-0.3-2.3c-0.4-0.9-0.9-1.8-1-2.8
				c-0.1-0.7,0.5-1.8,1.3-1.7c0.2,0,0.4,0.1,0.6,0.2c0.8,0.6,1.4,1.8,2,2.7c0.7,1,1.3,2,2,3.1c0.8,1.5,1.7,2.9,2.7,4.4
				c1.1,1.5,3,2.8,4.3,3.3c5.1,2.4,9.2,3.7,14.6,5.4c4-7.1,7.8-15.2,10.3-20.2c2.6-5.2,4.6-7.3,6.7-8.4c2.2-1.2,3-1.4,5.9-2.5
				c4.1,4.3,5.1,15.5-0.4,28.2c-1.6,3.8-5.1,10-7.2,13.1c-2.1,3.1-6.5,11.5-15.6,7.5c-10.3-4.5-17.3-10.7-20.5-12.4
				c-3.2-1.7-6.8-2.8-10.2-4.2c-1.5-0.6-3.9-1.8-5.3-2.5c-2.6-1.2-5.6-2.6-6.4-3C284.2,181.3,283.3,180.5,283.7,179.7z"/>
			<path class="st2" d="M300.6,177.2c-0.5,2.4,0.6,5,2.6,6.3"/>
			<g>
				<path class="st3" d="M309.9,196.6c0.9,0.2,1.9,0,2.8-0.4c0.3-0.1,0.6-0.3,0.9-0.5c2-1.3,3.5-3.9,4-7c0.4-2.3,0.1-4.6-0.8-6.5
					c0,0,0-0.1-0.1-0.1c-0.9-1.9-2.4-3-4.1-3.3c-0.7-0.1-1.4-0.1-2.1,0.2c0.6,0.5,1.2,0.9,1.8,1.2c0,0,0.1,0,0.1,0
					c0.7,0.1,1.3,0.4,1.9,0.9c0.5,0.4,0.9,1,1.2,1.7c0.8,1.6,1,3.6,0.7,5.7c-0.5,3-2,5.4-3.9,6.4c-0.7,0.4-1.5,0.5-2.3,0.4
					c-1.8-0.3-3.1-1.9-3.6-4.1c-0.5-0.3-1-0.5-1.5-0.7C305.5,193.6,307.4,196.2,309.9,196.6z"/>
			</g>
		</g>
		<g id="Legs_00000149381042864577932770000000700511457523286962_">
			<g id="Leg_00000145753052138776445460000013550931326287923585_">
				<path class="st1" d="M350.2,207.1c0.9,18.1,8.3,42.3,32.9,51.2c10.3,16.2,10,29.2,26.1,60.5c10.1,19.6,21.8,44.8,30.7,60.2
					c2.7,8,22.3,8.5,16.6-13.1c-6.3-31.1-8.9-39.1-20.4-64.7c-14.3-31.8-14.8-74.8-44.4-100L350.2,207.1z"/>
				<g>
					<path class="st4" d="M440,391.9c0.4,3.4,0,7.4,0.9,10.7c0.9,3.3,2.1,6.2,5.4,7.2c1.7,0.5,3.6,0.3,5.4-0.1
						c5.2-1.1,10.3-3.3,14.2-6.8c1.4-1.2,2.4-3,3-4.7c1-2.9-0.3-5.9-1.4-8.8c-1-2.6-2.7-5.8-3.9-8.3c-2.3-5.3-1.6-5-7-15
						c0.1,1.3,1,3.6-0.2,5c-0.7,0.8-2.3-2.1-4.6-3.1c-1.9-0.9-4.8-1.1-6.8-0.5c-3.5,1.1-6,2.4-7.6,5.3c-1.5,2.7-0.3,5,0.5,7.6
						C439.5,385.4,439.5,386.9,440,391.9z"/>
					<path class="st0" d="M456.4,371c-0.2,0.2-0.4,0.2-0.7,0c1.5,2.1,4,8.1,4.5,7.1c0.7-1.5-1.8-7.9-3.5-12.2
						C456.7,367.2,457.6,369.6,456.4,371z"/>
					<path class="st5" d="M471.5,398.7c0.5,1.6,0.7,6.5-7.4,11.4c-6.4,3.9-12.7,5-16.7,3.8c-2.7-0.8-4.7-4.9-6.1-9.5l0,0
						c0.9,2.5,2.2,4.6,4.8,5.4c1.7,0.5,3.6,0.3,5.4-0.1c5.2-1.1,10.3-3.3,14.2-6.8c1.4-1.3,2.4-3,3-4.7c1-2.9-0.3-5.9-1.4-8.8
						c-0.1-0.3-0.3-0.6-0.4-1C469.3,392.9,470.4,395.1,471.5,398.7z"/>
				</g>
			</g>
			<g id="Leg_00000044175073879618898390000014761283032335028407_">
				<path class="st1" d="M351.9,206c-7.4,34.4-6.7,77.8-0.3,112.4c7.8,42.3,15.3,69.6,15.3,69.6c1.4,7.7,24.6,15.5,19.6-3.2
					c0,0,0.7-22.6,1-35.4c0.3-16.3-5.6-27.3-5.1-37.2c0.5-11.6,1.3-59.8,1.3-59.8s12.6-30.2-0.2-46.4H351.9z"/>
				<g>
					<path class="st4" d="M386.8,385.4c2.4,0.4,4.1,0.8,3.8,5.4c-0.3,4.6,1.3,9.6,1.8,12.6c0.6,2.9,0.7,4.9-6.5,6.8
						c-7.2,2-9.5-0.1-14.9,3.5c-5.3,3.6-13.2,4-23.1,4.4c-10,0.4-14.9-2.2-16.3-3.8c-1.4-1.6,0.3-7.3,4.2-9.3
						c3.9-2,9.6-3.7,14.3-7.2c5.6-4.2,10.4-10.6,12.9-13.7c2.5-3,10.1,2,12.7,5.9c2.6,3.8,4.1,4.6,8.3,3.7
						C387,392.5,386.9,389.6,386.8,385.4z"/>
					<path class="st0" d="M371.3,397.1c-2.5,2.8,5.4,0.7,12.1-3.3c0,0,0,0,0,0c-3.8,0.7-5.3-0.2-7.7-3.8
						C376.2,392,373.8,394.3,371.3,397.1z"/>
					<path class="st5" d="M392.3,413.3c-1.8,2.4-6.7,3-10.8,3.4c-4.1,0.4-7.9-0.3-14.4,2.3c-7.2,2.9-12.8,4.1-18.9,4.5
						c-6.4,0.4-13.6-1.4-16-3.7c-0.9-0.8-1.1-2.7-1.1-6.4l0.1,0c0.1,0.4,0.2,0.7,0.4,0.9c1.4,1.6,6.3,4.2,16.3,3.8
						c10-0.4,14.8-2.7,20.9-4.8c7.5-2.6,9.9-1.2,17.1-3.1c5.8-1.6,6.8-3.1,6.8-5.2C392.7,405,394.1,410.9,392.3,413.3z"/>
				</g>
			</g>
			<g>
				<path class="st0" d="M394.1,197c8.8,11.4,20.2,19.5,28.4,50.7c7.1,26.6,9.4,35.8,15.2,50.4c6,15.1,11.6,26,14.5,40.3
					c0,0-1.3,7.6-15,13.7c-10,4.4-16.7-0.4-16.7-0.4c-10-16.9-28.7-50.9-35.8-68.4c0.3,17.5,0.5,28.4,2.9,44
					c1.4,9.2,2.3,24.4,2.3,24.4c-1.8,2.1-4,6-16.4,7.3c-14.5,1.5-16.9-4.9-16.9-4.9s-11.9-47.8-13.1-67.6c-1.2-19.8-3.4-57.7,4.6-85
					L394.1,197z"/>
				<path class="st6" d="M363.7,208.8c-0.4,10.2,0.2,14.3,0.8,23.1c0.2,3.7,2,11.2,6.3,18.4c4.3,7.2,6.8,13.9,12.2,27.8"/>
			</g>
		</g>
		<g id="Head_00000058556449488426242280000012881592023339548308_">
			<g>
				
					<ellipse transform="matrix(0.9984 -5.739545e-02 5.739545e-02 0.9984 -6.4809 21.2898)" class="st0" cx="367.4" cy="123.5" rx="18.9" ry="18.1"/>
			</g>
			<path class="st1" d="M375.2,111.1c0.5,11.9,6.7,14.1,6.7,14.1c-0.7,1.6-1.2,3.2-1.5,4.9c1.2-1.8,3.1-3.3,5.3-3.6
				c2.2-0.3,4.7,0.8,5.4,2.9c0.7,2-0.6,4.3-2.5,5.4c-1.9,1.1-4.6,1.3-7.1,0.2l0,0c-0.8,2.1-2.6,4.2-5.3,5.7l1.3,8l5.6,1.1
				c0,0-5.5,5-14,5.5c-8.6,0.5-10.8-3.4-10.8-3.4l5.3-1.9l0.3-6.4c-3.7-0.2-14.8-2.9-13.8-17.2c0.2-2.9,1-5.5,2.2-7.9l0,0
				C357.5,109,368.1,108.4,375.2,111.1z"/>
			<path class="st0" d="M372.4,131.6c0,0.3-0.3,0.6-0.6,0.6c-0.3,0-0.6-0.3-0.6-0.6c0-0.3,0.3-0.6,0.6-0.6
				C372.2,131,372.4,131.3,372.4,131.6z"/>
			<path class="st0" d="M376.5,110c2.9,1.1-1.5,5.9-1.5,5.9l-6.9-0.9l0-4.1l-1.7,3.8c0,0-10-0.5-13.5,2.1
				C355.1,111,364.3,105.5,376.5,110z"/>
			<g>
				<path class="st2" d="M388.4,129.5c-0.5-0.3-1.8-0.5-3.1,0c-1.2,0.4-2.2,1.5-2.5,2.8"/>
				<path class="st2" d="M386.3,131c-0.4-0.2-1.8-0.8-3,0"/>
			</g>
			<g>
				<path class="st0" d="M371.9,142.3c0,0-3.6,1.5-7.8,1.2l-0.1,2.1C364,145.6,368.7,145.6,371.9,142.3z"/>
				<path class="st2" d="M365.2,121.6c-0.3,1.5-0.9,3.5-1.8,4.8c-0.5,0.8-1.2,1.3-0.8,2.2c0.4,0.8,1.3,1.4,2.2,1.5"/>
				<g>
					<path class="st0" d="M366.2,133.5c-1.1,0.2-2.5,0.6-2.8,1.6c-0.7-1.1-1.7-1.4-1.7-1.4s1-0.7,2.2-0.7
						C365.2,133,366.2,133.5,366.2,133.5z"/>
					<path class="st4" d="M368.2,133.8c-0.3,0.6-1.6,2.1-4,2c-0.5,0-0.6-0.3-0.8-0.7c0-0.5,0.7-1.5,2.8-1.6
						C366.8,133.8,367.6,133.8,368.2,133.8z"/>
					<path class="st7" d="M366.9,133.7c0,0,0,0.4-0.7,0.6c-0.7,0.1-2.2,0.1-2.7-0.1s-0.7-0.9-0.7-0.9s0.9-0.4,1.5-0.3
						C364.9,133.1,366.7,133.6,366.9,133.7z"/>
					<path class="st2" d="M360.7,133.9c1.2-0.1,2.2-0.9,3.3-0.9c0.9,0,1.8,0.4,2.6,0.6c0.9,0.2,1.9,0.3,2.5-0.4"/>
					<path class="st2" d="M361.7,133.8c0.8,0.3,1.5,0.8,1.9,1.5c0.1,0.1,0.2,0.4,0.7,0.5c0.9,0.1,3.2-0.4,4-2.1"/>
				</g>
				<g>
					<g>
						<path class="st7" d="M353.2,124.9c0.6-1.3,2-2.2,3.5-2.1c1.5,0,3.5,1,3.7,3C359.6,127.8,354.9,127.9,353.2,124.9z"/>
						<path class="st0" d="M354.8,126.1c0.4,1,1.6,1.5,2.7,1.1c1.1-0.4,1.6-1.6,1.2-2.6c-0.4-1-1.6-1.5-2.7-1.1
							C355,123.9,354.4,125.1,354.8,126.1z"/>
						<polygon class="st7" points="358.9,124.6 356.8,125.3 359.1,125.7 						"/>
						<path class="st2" d="M360.3,125.8c-0.8-1.8-2.1-2.4-3.4-2.6c-1.4-0.3-2.5,0-3.7,1.2"/>
					</g>
					<path class="st2" d="M351.9,123.4c0.2,0.5,0.7,0.9,1.3,1"/>
					<path class="st2" d="M359.2,118.6c-2.1-0.3-4.1,0.4-5.7,1.6"/>
				</g>
				<g>
					<g>
						<path class="st7" d="M375,125c-0.6-1.3-2-2.1-3.5-2.1s-3.5,1-3.6,3.1C368.7,128.1,373.4,128.1,375,125z"/>
						<path class="st0" d="M369.7,126.2c0.4,1,1.6,1.5,2.7,1.1c1.1-0.4,1.6-1.6,1.2-2.6c-0.4-1-1.6-1.5-2.7-1.1
							C369.8,124.1,369.3,125.2,369.7,126.2z"/>
						<polygon class="st7" points="373.7,124.6 371.6,125.5 373.9,125.8 						"/>
						<path class="st2" d="M367.9,126.1c0.7-1.8,2.1-2.4,3.4-2.7c1.4-0.3,2.5,0,3.8,1.1"/>
					</g>
					<path class="st2" d="M376.3,123.5c-0.2,0.5-0.7,0.9-1.3,1"/>
					<path class="st2" d="M369.2,118.5c2.6-0.4,4.2-0.1,6.2,1.6"/>
				</g>
			</g>
		</g>
		<g id="Chest_00000070101895008371648770000007854180305764925057_">
			<g>
				<path id="Chest_00000065054321956620060070000017100064213157827974_" class="st5" d="M344.7,186.5c1,8.5-1.1,13.1,3.5,14.9
					c0,0,8.1,2.6,23.3,0.9c15.1-1.7,22.6-5.3,22.6-5.3c4.6-3.6,1.2-8.3,0.5-16c0,0,3.9-32.2-2.5-33.7l-8.9,2.4
					c-7.4,5.6-20.9,7.3-24.8,2.1l-9.6,3.1C343.7,162.6,335.1,174.6,344.7,186.5z"/>
			</g>
		</g>
		<g id="Arm_00000092447085244223826730000016688803286380777880_">
			<g id="Arm_00000065768269688034020320000006382770836754113419_">
				<path class="st1" d="M423.5,97.9c0,3.2,1.6,21.8,1.7,26.1c0.1,5-1.5,8.6-3,11.8c-2.3,5-9.5,14.2-15.3,23.2
					c-4.4,6.7-7.8,9.6-11,17.4c-3.9-3.2-8-7.9-9.1-15.1c-1.2-8.8,1.4-13.2,1.4-13.2l4.7-4.5c1.6-1.5,3-3.1,4.3-4.8
					c5-6.6,10-14.6,10-14.6s3.6-23.7,3.7-25.9c0.1-2.2-0.1-3.5-1-5.2c-0.9-1.7-1.8-3.1-2.8-4.6c-0.7-1.1-1.4-2.1-2-3.3
					c-0.5-0.9-1.4-2.1-1.6-3.1c0-0.2,0-0.4,0-0.6c0.3-0.8,1.5-0.8,2.2-0.5c0.9,0.5,1.5,1.4,2.2,2.2c0.3,0.4,1,1.4,1.6,0.7
					c0.3-0.3,0.3-0.8,0.3-1.3c-0.2-3.5-2-6.8-3-10.2c-0.2-0.8-0.4-1.8,0.3-2.3c0.9-0.7,1.9,0.1,2.4,0.8c0.6,0.8,1,1.7,1.4,2.6
					c0.3,0.7,0.6,1.5,0.9,2.2c0.1,0.3,0.6,1.6,0.8,1.9c0.2,0.2-0.3-3-0.4-3.7c-0.3-1.7-0.7-3.3-1.2-5c-0.2-0.6,0.1-1.2,0.4-1.7
					c0.5-0.6,1.5-1,2.2-0.6c0.5,0.3,0.9,0.7,1.2,1.2c0-0.6,0.7-1,1.3-1c0.9,0.1,1.7,0.9,2.2,1.6c0.3,0.5,0.4,1.1,0.6,1.6
					c0.6,2.2,0.8,4.4,1.4,6.6c0,0.2,0.1,0.3,0.2,0.4c0.3,0.4,0.6,0.1,0.7-0.3c0.3-1.4,0.4-2.7,0.5-4.1c0-0.4,0-0.8,0.1-1.2
					c0.1-0.4,0.4-0.7,0.8-0.8c0.7-0.1,1.2,0.5,1.5,1.1c1.3,2.6,0.8,5.6,0.7,8.4c0,1.6,0,4.4-0.2,6.1
					C424.5,90.2,423.5,94.7,423.5,97.9z"/>
				<path class="st2" d="M413.8,85.5c2.4,0.6,4.4,2.9,4.6,5.4"/>
				<path class="st2" d="M415,67c-0.5,1.1,0.1,2.7,0.2,3.8c0.3,2.3,0.8,4.8,1.1,7.1"/>
			</g>
		</g>
	</g>
</g>
<g id="Character_2">
	<g id="Character_00000101092704829959881510000012281534663813656731_">
		<g id="Legs_00000121277420462383616430000014265994705209117861_">
			<g id="Leg_00000123417645030235604150000001758100036962439051_">
				<path class="st8" d="M153,222.3c0,0-35.5,75-46.4,91.7c-5.8,8.8-10,15.8-16.5,25.5c-9.6,14.2-18.3,26-23,32.5
					c-6,0.7-15.6-3.7-20.4-11.8c7.6-18.7,18-44.5,28.4-59.9L95,213.1C112.3,216.2,153,222.3,153,222.3z"/>
				<path class="st5" d="M47.9,357.5l1.3-3.3c-2.3-0.6-5.5,1.8-4.4,6.9c-2.7,6.2-3.5,10.4-5.2,13.8c-1.5,7.8,10.2,21.8,19.7,9.3
					c0,0,3.2-4.3,7.6-10.2c5.1-0.8,6.2-4.9,4.3-7.6l-2.1,3C61,369,52.2,364.5,47.9,357.5z"/>
				<g>
					<path class="st3" d="M65.7,375.5l-2.6,3.6c-2.4,2.6-4.6,2.9-9.9,3.8c-1.4,0.2-2.4,1.3-3.4,2.7c-0.2-2.3-3.8-4.6-7.3-4.9h0
						c0.8-1.4,1.1-2.6,0.6-3.7c-1.5-3.2-1.6-5.6-1.1-8.5l1.7-4.8c0,0-3.1,0.7-4.9,5.4c-1.8,4.7-2.7,6.8-5.5,10.8
						c-6.5,9.3-18.7,17.9-15.5,30.9c3.7,15.3,17.4,14.2,21.3,11c5.2-3.2,6.2-7.6,9.1-15.4c2.9-8,5.9-13.3,9.7-18
						c3.9-4.7,5.8-5.3,7.6-8.5C66.6,377.9,65.7,375.5,65.7,375.5z"/>
					<g>
						<path class="st2" d="M26.4,405.3c3.9,3.5,7.7,5.1,12.8,6"/>
						<path class="st2" d="M28.9,404.8c3.9-0.1,9.7-0.5,13.6-0.2"/>
						<path class="st2" d="M37.6,408.9c-2.8-3.8-5-6.5-8.1-10.1"/>
						<path class="st2" d="M32,398.3c4.3-0.4,9-0.6,13.5-0.1"/>
						<path class="st2" d="M41.1,401.2c-2.6-3.8-4.9-6.2-7.9-9.7"/>
						<path class="st2" d="M36,391c4.2,0.1,8.7-0.5,12.8,0.3"/>
						<path class="st2" d="M41,383.4c2.3,1.8,4.7,3.3,7.3,4.6"/>
						<path class="st2" d="M44.4,395.2c-2.5-3.7-3.9-7.5-6.4-10.6"/>
					</g>
					<path class="st2" d="M37.3,373.1c-0.6,1.8-0.4,3.6-0.4,5.4c0.1,2-0.9,3.5-1.9,5.2c-2.6,4.5-5,8.7-8.1,13.4
						c-1.3,2-2.8,3.8-4.9,4.9c-1.3,0.6-2.7,0.8-4.1,0.7"/>
					<path class="st2" d="M59.8,386.1c-1.6,1.2-4.9,1.7-5.9,2.6c-0.5,0.4-0.8,1-1.2,1.6c-2.8,5.1-5.6,10.3-8.2,15.6
						c-0.6,1.3-1.3,2.5-1.6,3.9c-0.6,2.6-0.1,5.3,0.5,7.9"/>
					<path class="st5" d="M45,414.9c-3.7,11.7-12.1,16.1-20,13.6c-8-2.5-11.2-11.9-10.8-16.9c0.4-4.9,3.1-10.2,5.6-14.1
						c-2.1,4-3.2,8.3-2,13.4c3.7,15.3,17.4,14.2,21.3,11C42,420,43.6,417.8,45,414.9z"/>
				</g>
			</g>
			<g id="Leg_00000170998456794943236560000009784801953016025535_">
				<path class="st8" d="M135.4,336.5c-0.4-10.9,1-16.9-2.2-30.9c-5.6-24.1-17.7-61.2-38.1-92.5l69.7,8.3c0,0,6.1,44.4,3.9,94.8
					c-0.9,21.3-4.6,43.7-6.3,64.2c-5.1,5.6-17.8,4.8-22.4,0.9C138.4,368.1,135.9,351.7,135.4,336.5z"/>
				<path class="st5" d="M140.1,381.2l-0.5-4c-2.3,0.7-4.2,4.5-0.6,8.4c0.8,6.7,1.2,10.6,1.4,14.4c2.7,7.5,19.9,13.6,21.7-2
					c0,0,0.6-5.3,1.3-12.7c4-3.3,2.3-7-0.6-8.4l-0.3,3.5C155.3,384.3,147.3,385.1,140.1,381.2z"/>
				<g>
					<g>
						<path class="st3" d="M200,417.2c-0.1-1.1-1.5-3.9-8.6-6.5c-4.3-1.6-6.8-2.8-10.4-5.4c-4.2-3-11.5-10-13.2-11.7
							c-2.2-2.2-8-2.4-11.2,1.4c-0.9-0.5-1.9-1-3-0.9c-1,0.1-1.9,0.7-2.7,1.2c-1.6,1-2.1,1.5-3.2,2.4c-1.7,1.3-4,3.2-5.8,2.2
							c-1.7-0.9-2-5.5-2-5.5l-0.3-3c-0.5-0.1-2.3,0.1-2.9,1.3c-1.3,2.5-0.6,5-2.2,10.2c-1.1,3.6-0.9,8.4-0.9,8.4
							c2.3,2.5,7.1,3.9,13,4.4c5.8,0.5,12.2,0.9,17.4,2.9c7.1,2.7,13.2,3.5,13.2,3.5c4.6,0.6,10.9,0.6,16.3-0.4
							C198.9,420.6,200.1,418.3,200,417.2z"/>
					</g>
					<path class="st2" d="M173.3,410.8c2.5-2.6,8.2-5.1,12.2-3.4"/>
					<path class="st2" d="M179,403.8c-2.1,0.9-3.3,2.2-4.8,4.3"/>
					<path class="st2" d="M181,405.3c-2.5-0.3-6.2,0.1-12.3,0.5"/>
					<path class="st2" d="M174.3,400c-2.1,0.9-3.1,1.9-4.6,4"/>
					<path class="st2" d="M176.3,401.5c-2.5-0.3-6.2,0.1-12.3,0.5"/>
					<path class="st2" d="M169.8,395.7c-2.1,0.9-3.5,2.7-5,4.8"/>
					<path class="st2" d="M171.6,397.7c-2.5-0.3-6.2,0.1-12.3,0.5"/>
					<path class="st2" d="M135.3,399.4c0.5,2,1.3,3.9,3.1,5c1.7,1.1,3.9,1.5,6,1.1c3.2-0.7,5.8-3.3,9.1-3.4c2.4-0.1,4.6,1.1,6.6,2.3
						c3.7,2.3,9.6,6.4,10.2,7.7c0.7,1.3,1,5.1,1.3,8.9"/>
					<path class="st5" d="M199.4,425.6c-5.6,3-14.4,3.3-21.7,2.9c-7.3-0.4-13.1-4.3-17.1-5.2c-5.6-1.3-10.4-0.8-15.1-1.5
						c-4.7-0.7-10.1-1.6-11.4-3.5c-1.3-1.9-1.1-3.9-0.5-7.1c2.3,2.5,7.2,3.9,13,4.4c5.8,0.5,12.2,0.9,17.4,2.9
						c7.1,2.7,13.2,3.6,13.2,3.6c4.6,0.6,10.9,0.6,16.3-0.4c5.4-1,6.6-3.3,6.5-4.4C200.8,418.5,202.2,424.1,199.4,425.6z"/>
				</g>
			</g>
			<g>
				<path class="st0" d="M93.2,210.9c0,0-16.3,73-18.7,83C72,304,62,317.7,55.8,332.4c5.3,9.2,17.2,19.1,28.6,20.1
					c0,0,12.3-15.6,22.2-31.5c9.9-15.9,18.3-36,18.3-36s6.8,20.8,7.2,29.6c0.4,8.8-0.6,26,2.1,45.7c11,3.4,24.4,2.9,34.1-1.2
					c1.9-29.5,2.3-53.6,2.6-69.2c0.3-15.6-1.8-52.7-5.3-73.6L93.2,210.9z"/>
				<g>
					<path class="st9" d="M61.3,321.1c-0.7,1.3-2.1,4.1-2.1,4.1s3.7,8.3,11.7,14c8,5.7,17.8,7.7,17.8,7.7l2.4-3.2
						c0,0,2.7,3.5-0.7,6.3c-3.3,2.8-1.3,4.9-6,7.4c-4.7,2.5-15.4-2.8-20.6-6.2c-5.2-3.3-13.1-11.5-12.6-16.1
						c0.5-4.6,3.1-3.9,3.9-6.6C55.9,325.9,56.7,320.1,61.3,321.1z"/>
					<path class="st10" d="M58.1,338.8c8.9,5.3,19.4,8,29.8,7.4"/>
				</g>
				<g>
					<path class="st9" d="M133,349.1c0.2,1.5,0.3,3.9,0.3,3.9s7.4,4.7,17,4.7c9.6,0.1,18.3-3.9,18.3-3.9l0.2-4.1
						c0,0,2.9,1.3,1.8,5.5c-1.1,4.2,0.9,5.6-1.5,10.4c-2.4,4.8-11.8,5.9-17.7,6.1c-6,0.3-15.4-1.1-17.5-5.2c-2.2-4-0.9-6-1.8-8.6
						C131.3,355.3,130,350.1,133,349.1z"/>
					<path class="st10" d="M140,364.7c10.1-0.7,19.9-4.6,27.9-10.9"/>
				</g>
			</g>
		</g>
		<g id="Head_00000040550022468174172370000011480407451626903217_">
			<path class="st0" d="M143.2,102.1c-2.8,8.7,1.7,20.7,10.9,23.6c9.2,2.9,19.5-4.3,22.3-13.1c2.8-8.7-2.4-18.2-11.5-21.1
				C155.6,88.7,145.9,93.4,143.2,102.1z"/>
			<path class="st11" d="M143.2,102.1c-2.8,8.7,1.7,20.7,10.9,23.6c9.2,2.9,19.5-4.3,22.3-13.1c2.8-8.7-2.4-18.2-11.5-21.1
				C155.6,88.7,145.9,93.4,143.2,102.1z"/>
			<path class="st8" d="M145.2,119.6c-0.5,1.9-0.4,3.9,0.6,5.6l-3.4,10.6l-5.5,0.2c0.3,3.4,4.8,17.3,13.7,19.7
				c9,2.5,13.2-11.3,13.2-11.3l-4.9-3.1l1.4-6.4c1.1,0.3,4.6,0.6,7.1-0.8c2.5-1.4,4.5-3.5,6-7.5c1.4-3.8,1.1-7.7,1.2-9.1
				c0.2-1.4,1.2-2.3,2-5.5c1.2-4.7-0.3-9.2-0.3-9.2c-2.5,0.4-7.4-7.1-15.7-7.6c-5.5,0.9-8.2,2.8-9.7,5.5c0.5,2.8,1.1,5.8-0.1,9.3
				c-0.8,2.4-1.3,2.3-1.9,0.9c-0.8-1.8-2.3-3.6-4.3-4.2c-2.6-0.8-4.7,0.2-5.6,2c-1.1,2.1-0.1,4.1,1.5,5.4c1.6,1.3,3.9,2,5.9,1.4
				C146.3,115.4,145.7,117.7,145.2,119.6z"/>
			<g>
				<path class="st2" d="M143.5,105.3c0.1,0.6,0.2,1.2,0.1,1.8"/>
				<path class="st2" d="M141.1,105.6c0.3,0.4,0.6,1.2,0.5,1.7"/>
			</g>
			<g>
				<path class="st0" d="M160.2,134.9c-4.1-1.2-8.5-3.4-10.9-5.8c0.3,2,2.7,5.6,10.2,8.8L160.2,134.9z"/>
				<g>
					<g>
						<path class="st7" d="M168.4,114.1c0.5-1,1.7-1.4,2.8-1.3c1.2,0.1,2.8,0.6,2.8,2.3C173.4,116.7,169.6,116.6,168.4,114.1z"/>
						<path class="st0" d="M171.8,115.9c-0.6,0.5-1.6,0.3-2.1-0.3c-0.5-0.7-0.4-1.6,0.2-2.1c0.6-0.5,1.6-0.3,2.1,0.3
							C172.5,114.5,172.4,115.4,171.8,115.9z"/>
						<polygon class="st7" points="169.9,113.4 170.9,114.7 169.3,114 						"/>
						<path class="st2" d="M174.3,114.9c-0.5-1.3-1.8-1.8-3-1.9c-1.2-0.1-2.5,0.4-2.9,1.1"/>
					</g>
					<path class="st2" d="M170.3,107.1c2,0,4.9,1.2,5.8,2.8"/>
				</g>
				<g>
					<g>
						<path class="st7" d="M155.9,111c0.6-1,1.7-1.3,2.9-1.2c1.2,0.1,2.8,0.8,2.7,2.4C160.8,113.8,157,113.5,155.9,111z"/>
						<path class="st0" d="M159.3,112.8c-0.6,0.5-1.6,0.3-2.1-0.4c-0.5-0.7-0.4-1.6,0.3-2.1c0.6-0.5,1.6-0.3,2.1,0.4
							C160.1,111.4,159.9,112.4,159.3,112.8z"/>
						<polygon class="st7" points="157.4,110.3 158.4,111.6 156.9,110.9 						"/>
						<path class="st2" d="M161.8,112c-0.5-1.3-1.7-1.9-2.9-2c-1.2-0.1-2.5,0.3-3,1"/>
					</g>
					<path class="st2" d="M155.6,104.4c1.9-1,5-0.9,7,0.4"/>
				</g>
				<path class="st2" d="M166.3,109.9c-0.4,3.4,0.3,5.8,0.6,7.6c0.2,1.4-0.3,3.6-3.5,2.8"/>
				<g>
					<path class="st2" d="M141.7,109.4c0.6-0.2,1.8-0.2,2.9,0.5c1.1,0.6,1.8,1.8,1.9,3"/>
					<path class="st2" d="M143.3,111.1c0.4-0.1,1.8-0.4,2.8,0.5"/>
				</g>
			</g>
			<path class="st2" d="M164.2,125c-2.5,0-5.9-1.1-7.3-3.6"/>
			<path class="st0" d="M155.8,96.6c0.5,2.3-2.9,5.1-5,4.1l-4.5-4.3c0.2-4.2,2.4-5.5,3.9-6.3c1.9-1,4.4-0.8,6-2.2
				c1-0.9,1.4-2.4,1.1-3.7c1.6,0.1,3.1,1.3,3.6,2.8c1.6-1.5,3.7-2.5,5.9-2.2c2.1,0.3,4.1,2.3,3.8,4.4c1-0.8,2.5-0.6,3.6-0.1
				c1.4,0.6,2.7,1.5,3.3,2.8c0.7,1.3,0.6,3.1-0.3,4.2c1.5,0.6,2.5,2.4,2.1,4c-0.1,0.6-0.4,1.2-0.4,1.8c0,0.9,0.7,1.7,1.6,2
				c0.4,0.1,0.5,0.7,0.1,0.9c-1,0.5-2.2,0.5-3.3,0.1c-1.6-0.5-2.8-1.7-3.7-3.1c-0.5,0.8-1.5,1.1-2.4,1.2c-3.2,0.1-6.1-2.2-7.5-5
				c-1.2,0.8-2.8,0.9-4.2,0.6C158.3,98.1,157.1,97.3,155.8,96.6z"/>
		</g>
		<g id="Arm_00000029742458288748035940000008932911501236450206_">
			<g>
				<path class="st8" d="M221.3,216c3.5,0.8,8.4,2.9,12.6,4.5c1.8,0.7,4.9,1.6,6.8,2.2c3.3,1.1,7.2,2.4,8.2,2.7
					c0.9,0.3,2.3,0.3,2.6-0.7c0.3-1-0.7-1.8-1.9-2.4c-1.5-0.7-3.7-1.6-4.6-2c-0.9-0.4-0.5-0.9,0-0.8c1.4,0.2,7,1.3,8.5,1.4
					s3.5,0.3,3.9-1.3c0.3-1.2-0.7-1.9-2.8-2.3c-3.8-0.8-8-1.6-8.9-1.7c-0.8-0.2-0.9-0.7,0-0.7c0.9,0,7.9,0.4,9.9,0.5
					c1.9,0.1,3.7,0.2,3.9-1.4c0.2-1.4-1.6-1.9-2.8-2.1c-1.4-0.3-3.8-0.5-5.9-0.7c-1.9-0.2-3.1-0.4-3.8-0.5c-0.7-0.1-1.4-0.3-1.3-0.6
					c0-0.3,0.2-0.4,1-0.4c3.7-0.3,4.3-0.3,7.7-0.5c1.9-0.1,2.8-0.1,3.9-0.7c0.8-0.4,0.8-1.9-0.1-2.4c-1.4-0.9-3-0.7-5.1-0.7
					c-2.6-0.1-7,0-10.1-0.2c-1.7-0.1-2.1-0.5-2.2-0.9c-0.2-0.7,1.5-1.5,2.2-1.8c1.1-0.4,2.3-0.8,3.2-1.7c0.7-0.6,1-2,0.2-2.6
					c-0.2-0.2-0.5-0.2-0.7-0.2c-1.2-0.2-2.8,0.4-4,0.7c-1.5,0.3-2.9,0.7-4.3,1.1c-2,0.6-3.9,1.2-6.1,1.6c-2.2,0.4-5.2,1-6.7,0.5
					c-6.6-2.1-17.9-7-24.1-10c-4.2-9-8.6-22.1-11.1-28.3c-2.7-6.5-7-9.9-10.4-11.4c-5.4,4.9-13.1,15.1-7.6,31.1
					c1.7,4.7,5.5,12.4,8.1,17.2c3.1,5.8,6.5,8.2,13.7,9.8C200.5,212,217.8,215.2,221.3,216z"/>
				<path class="st2" d="M238.6,208.5c-1.5,2.5-4.7,3.9-7.6,3.4"/>
			</g>
			<g>
				<path class="st3" d="M178.7,150.7c9,4,9.6,7,12.1,13.5s10.3,25.8,10.3,25.8s7,3.5,10.7,5.1c3.7,1.6,4.8,2.5,5.2,3.8l-4.7,15.6
					c-1.4,1.9-4.3,1.2-9.3,0.1c-7.1-1.5-14.8-3.3-17.8-4.7c-3-1.4-5.4-3.8-9.3-10.5c-2.6-4.5-4.1-7-6.1-11.4
					S167.3,158.3,178.7,150.7z"/>
				<path class="st3" d="M223.4,201.3c0,0-2.9,2.3-4.2,6.4c-1.2,4.1-0.4,8-0.4,8l-6.5-1.1c-2-5.5,0.9-13.4,4.7-15.6L223.4,201.3z"/>
				<path class="st2" d="M212.4,214.5c-2-5.5,0.9-13.4,4.7-15.6"/>
			</g>
		</g>
		<g id="Chest_00000085218159365489476380000015472490522387921073_">
			<path class="st5" d="M138.7,135.9c0,0-9-1.5-14.3-7.4c-7.4,7.2-15.4,16.5-19.2,28.2c-3.7,11.7-5.7,23-8,31.6s-5.9,29.5-5.9,29.5
				s12.1,18.3,43.8,18.3c29.3,0,32.4-8.2,32.4-8.2s1-23.1,1.7-31.2c0.7-8.1,6.3-23.8,8.4-31.7c2.2-8,0.1-12.7,0.1-12.7l-15.7-7.9
				c0,0-3.6,4-9.9,3C145.8,146.5,141.3,141.4,138.7,135.9z"/>
			<g id="Jacket">
				<path class="st9" d="M134.5,189.2c5.9-23.6,8.8-32.9,9.5-40.5c-2.8-3.3-3.3-7.9-2.3-13.5c0,0-10.9-3-18.1-9.3
					c-18.3,11.3-22.3,38.7-24.9,50.9c-2.6,12.1-7.1,24.7-7.4,30.2c-0.1,1.1,0.2,2.5,0.8,4c-0.7,1.2-2.2,4.4-1.9,6.5
					c0.2,1.1,2.1,13.8,32.2,19.7C126.8,210.8,132.6,196.7,134.5,189.2z"/>
				<path class="st9" d="M178.7,150.7c-7.3-3.2-19.2-9.5-19.2-9.5c1,2.5,0.5,5-0.3,11.4c0.9,13.6-1.6,35.5-9,85.9
					c12.5-1.5,19-5.8,19.1-7.5c0-3.3-0.7-7.2-0.7-7.2l0,0c1-1,1.7-1.9,2-2.5c2.6-4.7,0.5-16.7,0.4-21.5c-0.1-4.7,0.8-14.4,5.3-25
					C184,156.4,178.7,150.7,178.7,150.7z"/>
				<path class="st2" d="M123.6,230.6c-1.7-0.4-26.1-4.7-31.6-20.1"/>
				<path class="st2" d="M168.6,223.9c-2.8,2.7-8.2,6.3-17.4,7.9"/>
				<path class="st0" d="M144.1,148.8c1.2-2.8,4.2-6.8,3-10c-1.3-3.2-2.4-3.8-3.4-7.2l0.9-2.8c0,0-1.2-1-2.4,0.5
					c-1.2,1.5-3.3,5-3.3,5S137.1,143.9,144.1,148.8z"/>
				<path class="st0" d="M159.2,152.6l-0.4-11.4l1.3-6c0,0,1.1,1.8,1.9,4.8c0.4,1.7,0.1,4.7-0.3,6.6
					C161.1,149.2,159.2,152.6,159.2,152.6z"/>
			</g>
		</g>
		<g id="Arm_00000156559386779692271220000013102361201002824067_">
			<g>
				<path class="st8" d="M102.7,66.2c-1.1,3.3-8.9,21.8-10.4,26c-1.8,5-1.6,8.6-0.6,12.2c0.6,2.3,4.7,18.5,7.7,29.6
					c2.3,8.3,4.7,15.3,5,29.4c5-2,9.5-7.5,13-14.6c4.2-8.6,5.5-21.4,5.5-21.4l-4-5.1c-2.7-9.1-8.3-23.9-8.3-23.9s4.2-25.4,4.8-27.7
					c0.7-2.3,1.3-3.6,2.8-5c1.5-1.4,2.9-2.6,4.4-3.7c1.1-0.9,2.1-1.7,3.1-2.7c0.8-0.8,2.1-1.6,2.6-2.7c0.1-0.2,0.2-0.4,0.2-0.7
					c0-1-1.3-1.4-2.1-1.2c-1.1,0.3-2,0.9-2.9,1.6c-0.6,0.4-2.1,1.3-2.5,0.7c-0.2-0.3-0.3-0.8,0.5-2.1c1.4-2.4,3.8-5.7,5.1-7.7
					c1-1.6,2-2.7,2.1-4.2c0-0.9-1.1-1.7-1.8-1.3c-1,0.5-1.5,1.2-2.6,2.6c-1.9,2.4-2.2,2.9-4.3,5.5c-0.5,0.6-0.6,0.7-0.8,0.5
					c-0.3-0.2,0-0.8,0.2-1.3c0.3-0.6,0.7-1.5,1.6-3.1c0.9-1.7,2-3.6,2.5-4.8c0.5-1,1-2.7-0.2-3.2c-1.3-0.6-2.1,0.8-3.1,2.3
					c-0.9,1.5-4.3,7-4.8,7.7c-0.4,0.7-0.8,0.4-0.5-0.3c0.3-0.7,1.9-4.3,3.3-7.6c0.8-1.8,0.8-2.9-0.3-3.3c-1.4-0.5-2.3,1.1-3,2.3
					c-0.7,1.2-2.8,6-3.4,7.1c-0.2,0.5-0.8,0.5-0.6-0.4c0.2-0.9,0.6-3,0.9-4.5c0.2-1.2,0.2-2.4-0.8-2.7c-0.9-0.3-1.6,0.8-1.9,1.6
					c-0.3,0.9-1.3,4.6-2.2,7.6c-0.5,1.7-1.4,4.5-1.8,6.3C104.2,58,103.7,62.9,102.7,66.2z"/>
				<path class="st2" d="M116.7,56.7c-2.7-0.2-5.4,1.5-6.5,4"/>
			</g>
			<g>
				<path class="st3" d="M123.6,125.9c-1.5-2.2-3.9-4.4-4.3-6.1c-0.4-1.7-5.2-19.9-5.4-21.6c-0.2-1.7,0.6-6.7,1.2-9.9
					c0.6-3.2,1.4-8.3-1-8.8l-15-4.6c0,0-2.6-1.2-4.9,6.3c-2.3,7.5-5.4,11.8-5.1,19.7c0.3,7.9,3.1,17.7,5.7,26.9s9.3,28.9,7.5,41.4
					C117.7,159.7,124.6,142.5,123.6,125.9z"/>
				<path class="st3" d="M101.5,68.6c0,0,2.3,2.8,6.2,4.4c4,1.6,7.5,0.2,7.5,0.2l-1.2,6.4c-3.8,2.9-12.6,0.4-15-4.6L101.5,68.6z"/>
				<path class="st2" d="M114.1,79.5c-3.8,2.9-12.6,0.4-15-4.6"/>
			</g>
		</g>
	</g>
</g>
<g id="Character_1">
	<g id="Character_00000161593929647432834970000004509158938911712676_">
		<g id="Legs_00000181773419532044079620000012253022143604836542_">
			<g id="Leg_00000045579078700254980120000013199603545512394644_">
				<path class="st12" d="M243.9,224.7c2,19.4,9.2,33.5,14.4,53.7c3.8,14.9,6.3,35,8,49.8c1.1,9.9,1.3,21.2,2.9,39.4
					c1.4,15.6,4.8,39.9,4.8,39.9c0.7,16.9,19.9,5.1,19.8-2.8c0,0,1.9-35,4.1-78.1c1.6-30.5,3-85.2-9.6-101.8H243.9z"/>
				<g>
					<g>
						<path class="st9" d="M329.1,426.9c-0.1-1-1.4-3.5-7.9-5.7c-3.9-1.3-6.2-2.3-9.5-4.6c-3.9-2.6-11.6-7.7-15.4-12.4
							c-2.6-3.2-7.8,0.5-7.8,4.1c-0.9-0.5-1.8-0.8-2.7-0.7c-0.9,0.1-1.7,0.6-2.4,1.2c-1.4,1-1.2,1.1-2.6,2.1
							c-1.6,1.1-3.5,1.3-4.8,0.4c-1-0.7-2-3.8-2-3.8l-0.4-2.4c-0.5,0.1-1.5,0.4-2.1,1.4c-1.1,2.3-0.4,4.5-1.7,9.2
							c-0.9,3.3-0.6,7.5-0.6,7.5c2.2,2.2,6.5,3.4,11.8,3.6c5.3,0.3,11,0.5,15.7,2.2c6.5,2.3,12,2.8,12,2.8c4.1,0.4,9.8,0.3,14.7-0.8
							C328.2,430,329.2,427.9,329.1,426.9z"/>
					</g>
					<g>
						<path class="st2" d="M303.4,420.7c3.2-3.2,7.3-4.3,8.8-4.2"/>
						<path class="st2" d="M299,418c3.2-3.2,7.3-4.3,8.8-4.2"/>
						<path class="st2" d="M295.1,415.3c3.2-3.2,7.3-4.3,8.8-4.2"/>
						<path class="st2" d="M291.3,412.2c3.2-3.2,7.3-4.3,8.8-4.2"/>
					</g>
					<path class="st5" d="M328.8,435.2c-3.8,2.7-11.9,3.8-19.4,2.5c-6.5-1.1-12.1-3.8-15.7-4.8c-4.6-1.3-9.4-0.6-13.6-1.1
						c-4.2-0.5-8.7-1-10-2.6c-1.2-1.6-1.3-3.1-0.8-6c2.1,2.2,6.5,3.4,11.8,3.6c5.3,0.3,11.1,0.4,15.7,2.1c13.5,5,18.1,4.5,26.5,2.6
						c4.9-1.1,6-3.7,5.9-4.8C329.8,428,331.1,433.6,328.8,435.2z"/>
					<path class="st5" d="M317.9,420c-3.9-0.6-12.1,3.6-13.6,11.5c12.6,4,26.2,0.7,24.8-4.6C328.6,424.9,323.6,420.8,317.9,420z"/>
				</g>
			</g>
			<g id="Leg_00000004528555142182597000000012377774203367313796_">
				<path class="st12" d="M239.4,224.3c-9.2,13.8-21.2,75.8-22.8,106.3c-2.2,43.1-4.1,77.3-4.1,77.3c-0.9,7.8,15.6,6.9,18.8,3.1
					c0,0,8.1-27.6,11.6-42.8c3.7-15.9,2.8-27.8,5.9-37.2c3.5-10.8,8.1-35.5,13.5-49.9c7.3-19.6,16-34.2,20-53.5L239.4,224.3z"/>
				<g>
					<g>
						<path class="st9" d="M206.5,423.2c-2.3,3.8-4.5,5.3-6.5,9.2c-1.3,2.5-0.8,5.7,1.3,7.7c1.3,1.2,3,1.9,4.7,2.4
							c5,1.4,10.5,1.8,15.6,0.5c2.1-0.5,3.8-1.6,5-3.3c1.4-1.9,2.8-3.9,4.2-5.8c0.5-0.7,1.8-1.3,2-3.3c0.2-3.5,0-4.6,0.2-7.5
							c0.5-5.8,2-16.8-0.3-16.9l-1.4,4.9c-0.9,0.4-0.9-0.3-2.4-2.2c-1.3-1.6-3.7-3.1-5.7-3.5c-3.6-0.7-7.5-0.4-9.4,0.9
							c-2.4,1.6-1.8,3.4-3,6.8C209.4,416.5,208.5,420,206.5,423.2z"/>
					</g>
					<g>
						<path class="st2" d="M208.6,424.3c5.4-0.8,10.2,0,14.3,2.6"/>
					</g>
					<g>
						<path class="st2" d="M210.1,420.2c5.4-0.8,10.2,0,14.3,2.6"/>
					</g>
					<g>
						<path class="st2" d="M211.2,416.4c5.4-0.8,10.2,0,14.3,2.6"/>
					</g>
					<g>
						<path class="st2" d="M212.1,412.7c5.4-0.8,10.2,0,14.3,2.6"/>
					</g>
					<path class="st5" d="M232.5,435.8c0,1.6-1,2.4-2,3.7c-0.8,1.1-1.8,2.5-2.2,3c-2.1,2.8-5,4.7-8.9,5.3c-7.5,1.1-16-0.6-19-3.5
						c-2-2-1.8-5.3-1-10l0,0c-0.7,5.6,3,7,6.5,8.2c5,1.7,10.5,1.8,15.6,0.5c1.8-0.5,3.7-1.3,4.8-2.8c1.2-1.6,2.2-3.4,3.5-5.2
						c1.3-1.8,2.8-2.6,2.9-4.5C232.7,431.3,232.5,434.5,232.5,435.8z"/>
					<path class="st5" d="M199.4,437.3c-0.5-2,0.2-4.2,1.6-5.8c2.6-3.1,7-4.4,12.2-3.7c7.7,1.1,13.1,5.4,13.2,12.3
						c-1.1,1.4-3.1,2.3-4.8,2.8c-5.1,1.4-10.6,1.2-15.6-0.5C203.2,441.6,200.2,440.5,199.4,437.3z"/>
				</g>
			</g>
			<g id="Pants_00000152227590240956655250000009531004655190566577_">
				<path class="st0" d="M271.1,388.9c0,0,13.5,3,24-1.7c0,0,6.2-78.6,3.3-115.3c-1.8-22.6-6.5-40.3-10.1-48.5
					c-9.2,3.8-39.3,2.6-49.4-1c-6.3,11.5-11.5,28.5-14.5,42.6C215,309.8,213,386,213,386c0,0,10.8,6.7,25.2,3.2c0,0,22.6-92,22.6-92
					C260.8,297.2,271.1,388.9,271.1,388.9z"/>
				<path class="st3" d="M238.8,223.5l0.6-7.7c0,0,12.2,4.5,24.2,4.5c13,0,24-4.6,24-4.6l0.6,7.6c0,0-8.4,5.3-24.5,5.5
					C247.5,229.1,238.8,223.5,238.8,223.5z"/>
				<path class="st0" d="M244.8,226.5c0,0.8,0.4,1.5,0.9,1.9c0.6,0.5,1.3,0.6,2,0.6c0.4,0,0.8-0.1,0.9-0.8c0.4-3.2,0.6-6.1,1.4-9.1
					c0.1-0.2,0.1-0.5,0.1-0.8c-0.1-0.4-0.3-0.5-0.5-0.7c-0.8-0.4-1.7-0.6-2.5-0.4c-0.2,0-0.3,0.1-0.5,0.2c-0.2,0.2-0.3,0.6-0.4,0.9
					c-0.3,1.2-0.6,2.4-0.8,3.6C245.1,223.4,244.8,224.9,244.8,226.5z"/>
				<path class="st0" d="M284,225.7c0,0.8-0.4,1.5-0.9,1.9c-0.6,0.5-1.3,0.6-2,0.6c-0.4,0-0.8-0.1-0.9-0.8c-0.4-3.2-0.6-6.1-1.4-9.1
					c-0.1-0.2-0.1-0.5-0.1-0.8c0.1-0.4,0.3-0.5,0.5-0.7c0.8-0.4,1.7-0.6,2.5-0.4c0.2,0,0.3,0.1,0.5,0.2c0.2,0.2,0.3,0.6,0.4,0.9
					c0.3,1.2,0.6,2.4,0.8,3.6C283.7,222.7,284,224.2,284,225.7z"/>
				<path class="st5" d="M270,383.6c6.5,3.3,19,3.1,25.7-1l-0.6,6.7c-4.9,4.3-18.2,4.7-24.5,1L270,383.6z"/>
				<path class="st5" d="M239.4,385.2c-7.2,2.4-20.1,0.5-26.5-4.5l-0.2,6.8c4.5,4.9,18.2,7.1,25.2,4.3L239.4,385.2z"/>
				<path class="st6" d="M270.6,269.3c-5,6.7-7.9,22.6-10,31.6"/>
			</g>
		</g>
		<g id="Head_00000169523258286548971270000011038531833531726771_">
			<path class="st0" d="M286.7,144.5c-1.3-8.8-5.6-17.2-5.6-17.2c3.1-7.1-6.4-12.5-15.9-12.3c-5.9,0.1-11.9,3.5-15.1,7l0,0
				c-2.8,0.1-7.2,4.5-6.6,12.4c0.6,7.9-0.2,11.4,0,16.8c0.2,5.7-0.6,8.3-0.6,8.3c18.8,4.9,31.2,2.6,37.4,0.5c0.9-2.8,1.7-5,1.7-10.8
				c1.4,2.4,2.1,6.4,2.1,9.3C284.1,158.4,288,153,286.7,144.5z"/>
			<path class="st12" d="M254.5,122.2c0.9,6.2-4.5,13.9-4.5,13.9c0.7,1.6,1.2,3.3,1.5,5c-1.2-1.8-3.1-3.3-5.4-3.6
				c-2.2-0.3-4.7,0.9-5.4,2.9c-0.7,2,0.6,4.3,2.5,5.4c1.9,1.1,4.6,1.3,7.2,0.2l0,0c0.8,2.1,2.6,4.3,5.4,5.8l-1,9.3l-2.7,0.5
				l18.7,11.7l0.8-10.2l-3.1-1l-0.4-7.5c3.8-0.2,14.9-3,13.8-17.4c-0.2-2.9-1-5.6-2.2-7.9l0,0C276.7,124.3,272.4,118.8,254.5,122.2z
				"/>
			<g>
				<path class="st2" d="M243.5,140.7c0.5-0.3,1.8-0.5,3.1,0c1.2,0.4,2.2,1.5,2.5,2.8"/>
				<path class="st2" d="M245.6,142.2c0.4-0.2,1.8-0.8,3,0"/>
			</g>
			<g>
				<path class="st0" d="M260.3,153.3c0,0,2.9,1.4,7.8,1.2l0.1,2.1C268.2,156.5,263.5,156.6,260.3,153.3z"/>
				<path class="st2" d="M266.3,130.1c0,1.6,0.3,3.6,2,6.8c0.2,0.4,0.4,0.7,0.5,1.1c0.1,0.6-0.2,1.2-0.6,1.7s-0.9,0.8-1.4,1.2"/>
				<g>
					<g>
						<path class="st7" d="M277.2,135.1c-0.5-1.3-1.8-2.3-3.3-2.4c-1.5-0.1-3.6,0.7-3.9,2.7C270.6,137.4,275.3,137.9,277.2,135.1z"
							/>
						<path class="st0" d="M275.4,136.1c-0.5,1-1.7,1.4-2.7,0.9c-1-0.5-1.5-1.7-1-2.7c0.5-1,1.7-1.4,2.7-0.9
							C275.4,133.9,275.9,135.1,275.4,136.1z"/>
						<polygon class="st7" points="271.5,134.2 273.5,135.2 271.2,135.3 						"/>
						<path class="st2" d="M270,135.4c0.9-1.7,2.3-2.2,3.6-2.3c1.4-0.2,2.5,0.2,3.6,1.5"/>
					</g>
					<path class="st2" d="M278.7,133.7c-0.3,0.5-0.8,0.9-1.4,0.9"/>
					<path class="st2" d="M271.8,128.4c2-0.8,4.1-0.6,5.9,0.3"/>
				</g>
				<g>
					<g>
						<path class="st7" d="M256.1,135.3c0.4-1.4,1.8-2.4,3.2-2.5s3.6,0.6,3.9,2.7C262.7,137.6,258.1,138.1,256.1,135.3z"/>
						<path class="st0" d="M261.4,135.9c-0.3,1.1-1.4,1.7-2.5,1.4c-1.1-0.3-1.8-1.4-1.5-2.5c0.3-1.1,1.4-1.7,2.5-1.4
							C261,133.7,261.7,134.8,261.4,135.9z"/>
						<polygon class="st7" points="257.2,134.8 259.4,135.3 257.1,135.9 						"/>
						<path class="st2" d="M263.3,135.5c-1-1.7-2.4-2.1-3.7-2.3c-1.4-0.1-2.5,0.3-3.6,1.6"/>
					</g>
					<path class="st2" d="M254.7,133.9c0.3,0.5,0.8,0.8,1.4,0.8"/>
					<path class="st2" d="M261.9,128.2c-2.6-0.4-4.7-0.2-6.4,1.1"/>
				</g>
				<g>
					<path class="st0" d="M265.2,144.1c1.2,0.1,2.6,0.3,3,1.3c0.6-1.2,1.5-1.6,1.5-1.6s-1.1-0.6-2.3-0.5
						C266.2,143.4,265.2,144.1,265.2,144.1z"/>
					<path class="st7" d="M263.3,144.6c0.4,0.6,1.9,1.9,4.2,1.5c0.5-0.1,0.5-0.4,0.7-0.8c-0.1-0.5-0.9-1.4-3-1.3
						C264.7,144.4,263.9,144.6,263.3,144.6z"/>
					<path class="st2" d="M270.9,143.8c-1.2,0.1-2.3-0.6-3.4-0.5c-0.9,0.1-1.7,0.6-2.5,0.9c-0.8,0.3-1.9,0.5-2.6-0.1"/>
					<path class="st2" d="M269.8,143.8c-0.8,0.4-1.4,1-1.7,1.8c-0.1,0.1-0.1,0.4-0.6,0.6c-0.9,0.2-3.2,0-4.3-1.6"/>
				</g>
			</g>
			<path class="st3" d="M252,146.6c0,1.2-0.9,2.1-2.1,2.1s-2.1-0.9-2.1-2.1s0.9-2.1,2.1-2.1S252,145.4,252,146.6z"/>
			<g>
				<path class="st2" d="M265.4,135.5c0,3-2.4,5.4-5.4,5.4c-3,0-5.4-2.4-5.4-5.4c0-3,2.4-5.4,5.4-5.4
					C263,130.1,265.4,132.5,265.4,135.5z"/>
				<path class="st2" d="M280.8,135.5c0,3-2.4,5.4-5.4,5.4c-3,0-5.4-2.4-5.4-5.4c0-3,2.4-5.4,5.4-5.4
					C278.4,130.1,280.8,132.5,280.8,135.5z"/>
				<path class="st2" d="M265.4,135.5c1.2-1.3,3.4-1.4,4.6-0.1"/>
				<line class="st2" x1="254.7" y1="135.5" x2="248.6" y2="137.5"/>
			</g>
		</g>
		<g id="Chest_00000072981710376492998930000000191108434531914889_">
			<path id="Chest_00000023245316927167740620000011777624045523818648_" class="st9" d="M287.4,166.7l-13.4-5
				c-1.6-3.9-3.5-4.4-5.7-4.7l0.3,4.9c1.2,4.1-1,8.7-1,8.7s-9.8-6.7-12.6-9.8l0.4-3.8c0,0-4.1-0.7-5.7,5L238,166
				c0,0-4.3,10.9-3.6,24.6c0.4,8.6,0.6,13.7,0.7,19.2c0,3.8,2.5,7.1,6.2,8.1c5,1.4,13,3,24.5,3c10,0,16.1-1.4,19.8-2.8
				c3.2-1.3,5.3-4.4,5.3-7.9c0-7.1,0.1-17.3,0-22C290.4,175.7,287.4,166.7,287.4,166.7z"/>
			<path class="st2" d="M267.5,175.8c0.8,11.1,0.7,27.8-1.1,43.9"/>
			<path class="st6" d="M259.5,174c5.4,3.3,12.4,1.8,15.1-1.3"/>
			<path class="st2" d="M264.4,172.1l-3.1-2.5l-4.5,7.3c0,0-7.4-5.9-6.9-13.7"/>
			<path class="st2" d="M269.7,172l1.7-3c0,0,2.7,2.7,5.3,6.4c1.6-5.3-2.2-12.6-2.2-12.6"/>
		</g>
		<g id="Arm_00000044874069532115365990000018251937685181829774_">
			<path class="st12" d="M203.3,234.8c-2.6,3.1-2.8,5.2-6.3,8.8c-1.8,1.9-3.6,6.8-5.1,8.4c-1,1.1-2.1,0.4-2.7-0.1
				c-1.4,3.3-2.9,4-4.6,2.3c-1.2,1.9-3.2,0.6-2.9-2.5c-0.9,1.3-2.3,0.6-2.6,0.2c-0.6-0.7-0.7-2.1-0.4-3.2c1-4.1,3.1-7.8,5.4-11.2
				c-0.5-0.2-2.4,2.4-3,3.1c-0.7,0.7-1.4,1.4-2.3,1.3c-1.2-0.2-1.7-1.1-1.6-1.7c0.1-0.6,0.8-1.5,1-1.7c1.2-1.9,1.8-3.1,3.3-4.7
				c3.6-3.8,7.1-5.9,11.5-8.7c1.8-1.1,3.2-2.2,4.5-3.9c1.5-1.9,2.8-4,4.1-6c3-4.5,7.4-9.5,10.3-14.1c0,0,8.4-15.1,13.5-23.6
				c3.6-5.9,7.9-8.1,12.5-9.9l-0.2,24.7c0,0-4.7,6.4-8.6,11.8c-4.8,6.6-5.8,8.3-10.2,13.6C214,223.2,205.9,231.7,203.3,234.8z"/>
			<path class="st2" d="M187.6,240c-2.7,3.8-5.8,9.2-6,11.6"/>
			<path class="st2" d="M190.2,242c-4.9,7.7-4.7,10.6-5.7,12.2"/>
			<path class="st2" d="M193.5,243.2c-1.6,2.6-3.3,5.9-4.3,8.6"/>
			<path class="st9" d="M238,166c4.6,6.3,1.7,32.5,1.7,32.5s-5.7,9.6-12.8,15.6c-2.9,2.5-11.8,10.2-14.3,12.5
				c-0.3,0.3-0.9,0.2-1-0.3c-2-5.1-5.6-8.5-10.9-10.1c-0.4-0.1-0.6-0.6-0.4-1c1.9-2.6,8.3-11.7,10.8-15.4c4-5.9,7.8-14.2,9.6-17.2
				C227.8,171.2,230.2,168.7,238,166z"/>
			<path class="st2" d="M188,235.1c-1.8,1.9-2.9,1-5,2.9"/>
			<path class="st2" d="M236.3,181.2c-1.7,6.8-2,12.8-1.5,23.7"/>
		</g>
		<g id="Arm_00000085951607158127837730000001878448696929585301_">
			<path class="st12" d="M322.5,234.8c2.6,3.1,2.8,5.2,6.3,8.8c1.8,1.9,3.6,6.8,5.1,8.4c1,1.1,2.1,0.4,2.7-0.1
				c1.4,3.3,2.9,4,4.6,2.3c1.2,1.9,3.2,0.6,2.9-2.5c0.9,1.3,2.3,0.6,2.6,0.2c0.6-0.7,0.7-2.1,0.4-3.2c-1-4.1-3.1-7.8-5.4-11.2
				c0.3-0.1,0.9,0.5,1.5,1.2c0.6,0.7,1.2,1.5,1.6,1.9c0.7,0.7,1.4,1.4,2.3,1.3c1.2-0.2,1.7-1.1,1.6-1.7c-0.1-0.6-0.8-1.5-1-1.7
				c-1.2-1.9-1.8-3.1-3.3-4.7c-3.6-3.8-7.1-5.9-11.5-8.7c-1.8-1.1-3.2-2.2-4.5-3.9c-1.5-1.9-2.8-4-4.1-6c-3-4.5-7.4-9.5-10.3-14.1
				c0,0-8.4-15.1-13.5-23.6c-3.6-5.9-8.5-8.8-13.1-10.6l0.8,25.4c0,0,4.7,6.4,8.6,11.8c4.8,6.6,5.8,8.3,10.2,13.6
				C311.8,223.2,319.9,231.7,322.5,234.8z"/>
			<path class="st2" d="M338.2,240c2.7,3.8,5.8,9.2,6,11.6"/>
			<path class="st2" d="M335.6,242c4.9,7.7,4.7,10.6,5.7,12.2"/>
			<path class="st2" d="M332.3,243.2c1.6,2.6,3.3,5.9,4.3,8.6"/>
			<path class="st9" d="M287.4,166.7c-4.6,6.3-1.3,31.8-1.3,31.8s5.7,9.6,12.8,15.6c2.9,2.5,11.8,10.2,14.3,12.5
				c0.3,0.3,0.9,0.2,1-0.3c2-5.1,5.6-8.5,10.9-10.1c0.4-0.1,0.6-0.6,0.4-1c-1.9-2.6-8.3-11.7-10.8-15.4c-4-5.9-7.8-14.2-9.6-17.2
				C298,171.2,296,169.3,287.4,166.7z"/>
			<path class="st2" d="M337.8,235.1c1.8,1.9,2.9,1,5,2.9"/>
			<path class="st2" d="M289.5,181.2c1.7,6.8,2,12.8,1.5,23.7"/>
		</g>
	</g>
</g>
<g id="Banner_00000014606049370291472500000018300727470805209531_">
	<g id="Banner">
		<g>
			<path class="st5" d="M409.3,320c-95.9,1.5-191.2,1.5-287.1,0c-1.5,0-2.8-1.1-3-2.4c-3.8-25.2-3.8-49.5,0-74.7
				c0.2-1.4,1.5-2.4,3-2.4c95.9-1.5,191.2-1.5,287.1,0c1.5,0,2.8,1.1,3,2.4c3.8,25.2,3.8,49.5,0,74.7
				C412.1,318.9,410.8,319.9,409.3,320z"/>
			<g>
				<g>
					<path class="st9" d="M184.1,266.9l-4.5,15.8l-5.5-18.3l-6.3,0.1l-5.2,18.3l-4.8-15.6c-0.5-1.5-1.9-2.6-3.5-2.6l-0.1,0
						c-2.5,0-4.2,2.4-3.4,4.8l7.7,23.4c0.6,1.8,2.2,3,4.1,2.9l0,0c1.9,0,3.6-1.3,4.1-3.1l4.4-15.5l4.7,15.4c0.6,1.8,2.2,3.1,4.1,3
						l0,0c1.9,0,3.5-1.2,4.1-3l7.2-23.5c0.7-2.4-1.1-4.8-3.5-4.7l0,0C186,264.3,184.5,265.4,184.1,266.9z"/>
					<path class="st9" d="M220,268.2l0-0.2c0.1-1.8-1.4-3.3-3.1-3.3l-13.4-0.4v0l-3-0.1c-1.8-0.1-3.3,1.4-3.3,3.1l-0.7,24.7
						c-0.1,1.8,1.4,3.3,3.1,3.3l4.5,0.1l12.2,0.4c1.8,0.1,3.3-1.4,3.3-3.1l0-0.2c0.1-1.8-1.4-3.3-3.1-3.3l-12-0.3l0.2-6l10.4,0.3
						c1.8,0.1,3.3-1.4,3.3-3.1l0,0c0.1-1.8-1.4-3.3-3.1-3.3l-10.4-0.3l0.2-5.4l11.8,0.3C218.4,271.4,219.9,270,220,268.2z"/>
					<path class="st9" d="M243.1,288.9l-10-0.1l0.3-24.4l-7.9-0.1l-0.3,31.2l7.9,0.1l0,0l10,0.1c1.9,0,3.4-1.5,3.4-3.3l0,0
						C246.4,290.5,244.9,289,243.1,288.9z"/>
					<path class="st9" d="M269.9,288.8c-1.1,0.4-2.4,0.6-3.9,0.5c-1.3-0.1-2.4-0.3-3.4-0.8c-1-0.5-1.9-1.1-2.6-2
						c-0.7-0.8-1.3-1.8-1.6-3c-0.4-1.1-0.5-2.4-0.4-3.8c0.1-1.4,0.3-2.6,0.8-3.7c0.5-1.1,1.1-2,1.9-2.8c0.8-0.8,1.7-1.3,2.8-1.7
						c1.1-0.4,2.2-0.5,3.5-0.4c1.5,0.1,2.7,0.4,3.8,0.9c0.2,0.1,0.4,0.2,0.6,0.3c1.4,0.8,3.1,0.7,4.3-0.3l0.1-0.1
						c1.8-1.6,1.5-4.5-0.6-5.7c-0.4-0.2-0.8-0.4-1.3-0.6c-1.9-0.9-4.1-1.4-6.6-1.5c-2.3-0.1-4.5,0.2-6.6,0.9c-2,0.7-3.9,1.8-5.4,3.1
						c-1.6,1.4-2.8,3-3.8,4.9c-0.9,1.9-1.5,4-1.6,6.3c-0.1,2.3,0.2,4.4,0.9,6.4c0.7,2,1.8,3.8,3.3,5.3c1.4,1.5,3.1,2.7,5.1,3.7
						c2,0.9,4.2,1.4,6.5,1.5c2.6,0.1,4.8-0.1,6.8-0.8c0.4-0.1,0.9-0.3,1.3-0.5c2.2-0.9,2.8-3.8,1.2-5.6l-0.1-0.1
						c-1.1-1.2-2.8-1.5-4.2-0.8C270.5,288.5,270.2,288.7,269.9,288.8z"/>
					<path class="st9" d="M313.7,273.7c-0.8-2-2-3.7-3.5-5.2c-1.5-1.5-3.3-2.6-5.3-3.4c-2-0.8-4.2-1.2-6.6-1.2
						c-2.4,0-4.6,0.4-6.6,1.2c-2,0.8-3.8,1.9-5.3,3.4c-1.5,1.5-2.7,3.2-3.5,5.1c-0.8,1.9-1.3,4.1-1.3,6.4c0,2.3,0.4,4.4,1.3,6.4
						c0.8,2,2,3.7,3.5,5.2c1.5,1.5,3.3,2.6,5.3,3.4c2,0.8,4.2,1.2,6.6,1.2c2.4,0,4.6-0.4,6.6-1.2c2-0.8,3.8-1.9,5.3-3.4
						c1.5-1.5,2.7-3.2,3.5-5.2c0.8-2,1.3-4.1,1.3-6.4C314.9,277.7,314.5,275.6,313.7,273.7z M305.8,284.8c-0.7,1.4-1.7,2.4-3,3.2
						c-1.3,0.8-2.8,1.1-4.6,1.1c-1.3,0-2.5-0.2-3.6-0.6c-1.1-0.4-2-1-2.7-1.9c-0.8-0.8-1.3-1.8-1.7-2.9c-0.4-1.1-0.6-2.4-0.6-3.8
						c0-1.8,0.4-3.4,1.1-4.8c0.7-1.4,1.7-2.4,3-3.2c1.3-0.7,2.8-1.1,4.6-1.1c1.3,0,2.5,0.2,3.6,0.7c1.1,0.4,2,1.1,2.7,1.9
						c0.8,0.8,1.3,1.8,1.7,2.9c0.4,1.1,0.6,2.3,0.6,3.7C306.9,281.8,306.5,283.4,305.8,284.8z"/>
					<path class="st9" d="M352.1,291.4l-0.5-27.3l-5.7,0.1l-10.3,16.2l-10.9-15.8l-5.7,0.1l0.5,27.3c0,2.1,1.8,3.9,4,3.8l0,0
						c2.1,0,3.9-1.8,3.8-4l-0.2-12.1l6.1,8.8l5.1-0.1l5.8-9l0.2,12.1c0,2.1,1.8,3.9,4,3.8l0,0C350.5,295.4,352.2,293.6,352.1,291.4z
						"/>
					<path class="st9" d="M377.8,289.1l-12-0.1l0.1-6l10.4,0.1c1.8,0,3.2-1.4,3.3-3.2l0,0c0-1.8-1.4-3.2-3.2-3.3l-10.4-0.1l0.1-5.4
						l11.8,0.1c1.8,0,3.2-1.4,3.3-3.2l0-0.2c0-1.8-1.4-3.2-3.2-3.3l-13.4-0.1v0l-3,0c-1.8,0-3.2,1.4-3.3,3.2l-0.2,24.7
						c0,1.8,1.4,3.2,3.2,3.3l4.6,0v0l12,0.1c1.8,0,3.2-1.4,3.3-3.2l0-0.2C381,290.6,379.6,289.1,377.8,289.1z"/>
				</g>
				<path class="st3" d="M144.6,286.1l-10.9,5.9c-1.7,0.9-2.3,3-1.4,4.7c0.6,1.2,1.8,1.8,3.1,1.8c0.6,0,1.1-0.1,1.7-0.4l10.9-5.9
					c1.7-0.9,2.3-3,1.4-4.7C148.4,285.8,146.3,285.2,144.6,286.1z M143.3,279.6c1.8,0,3.4-1.4,3.5-3.3c0.1-1.9-1.3-3.6-3.2-3.7
					l-12.3-0.9c-1.9-0.1-3.6,1.3-3.7,3.2c-0.1,1.9,1.3,3.6,3.2,3.7l12.3,0.9C143.2,279.6,143.3,279.6,143.3,279.6z M403.7,292
					l-10.9-5.9c-1.7-0.9-3.8-0.3-4.7,1.4c-0.9,1.7-0.3,3.8,1.4,4.7l10.9,5.9c0.5,0.3,1.1,0.4,1.7,0.4c1.2,0,2.5-0.7,3.1-1.8
					C406.1,295,405.4,292.9,403.7,292z M390.5,280.1c0.1,0,0.2,0,0.2,0l12.3-0.9c1.9-0.1,3.4-1.8,3.2-3.7c-0.1-1.9-1.8-3.4-3.7-3.2
					l-12.3,0.9c-1.9,0.1-3.4,1.8-3.2,3.7C387.1,278.7,388.7,280.1,390.5,280.1z"/>
			</g>
		</g>
		<path class="st12" d="M348.8,240c-0.1-0.6-0.8-1.5-1-1.7l-4.5,0.4c0.6,0.7,1.2,1.5,1.6,1.9c0.7,0.7,1.4,1.4,2.3,1.3
			C348.4,241.5,348.9,240.6,348.8,240z"/>
		<path class="st12" d="M177,240c0.1-0.6,0.8-1.5,1-1.7l4.5,0.4c-0.6,0.7-1.2,1.5-1.6,1.9c-0.7,0.7-1.4,1.4-2.3,1.3
			C177.4,241.5,176.9,240.6,177,240z"/>
	</g>
</g>
</svg>
